<?xml version="1.0" encoding="UTF-8" standalone="no"?>
<!-- Created with Inkscape (http://www.inkscape.org/) -->

<svg
   xmlns:dc="http://purl.org/dc/elements/1.1/"
   xmlns:cc="http://creativecommons.org/ns#"
   xmlns:rdf="http://www.w3.org/1999/02/22-rdf-syntax-ns#"
   xmlns:svg="http://www.w3.org/2000/svg"
   xmlns="http://www.w3.org/2000/svg"
   xmlns:sodipodi="http://sodipodi.sourceforge.net/DTD/sodipodi-0.dtd"
   xmlns:inkscape="http://www.inkscape.org/namespaces/inkscape"
   version="1.1"
   viewBox="0 0 400 100"
   id="svg54"
   sodipodi:docname="Street_Fighter_II-Logo.svg"
   width="400"
   height="100"
   inkscape:version="0.92.3 (2405546, 2018-03-11)">
  <sodipodi:namedview
     pagecolor="#ffffff"
     bordercolor="#666666"
     borderopacity="1"
     objecttolerance="10"
     gridtolerance="10"
     guidetolerance="10"
     inkscape:pageopacity="0"
     inkscape:pageshadow="2"
     inkscape:window-width="1920"
     inkscape:window-height="1017"
     id="namedview56"
     showgrid="false"
     inkscape:zoom="1.8059607"
     inkscape:cx="394.25"
     inkscape:cy="218.64999"
     inkscape:window-x="-8"
     inkscape:window-y="-8"
     inkscape:window-maximized="1"
     inkscape:current-layer="svg54" />
  <defs
     id="defs20">
    <linearGradient
       id="linearGradient4191"
       y2="283.20001"
       gradientUnits="userSpaceOnUse"
       x2="247.2"
       gradientTransform="matrix(3.7472528,0,0,3.7472528,-583.79363,-876.4726)"
       y1="260.5"
       x1="241.5">
      <stop
         stop-color="#FF0"
         offset="0"
         id="stop10" />
      <stop
         stop-color="#dd1328"
         offset="1"
         id="stop12" />
    </linearGradient>
    <linearGradient
       id="linearGradient4193"
       y2="243.5"
       gradientUnits="userSpaceOnUse"
       x2="220.60001"
       gradientTransform="matrix(3.7472528,0,0,3.7472528,-583.79363,-874.4726)"
       y1="214.8"
       x1="212.39999">
      <stop
         stop-color="#FF0"
         offset="0"
         id="stop15" />
      <stop
         stop-color="#dd1329"
         offset="1"
         id="stop17" />
    </linearGradient>
  </defs>
  <metadata
     id="metadata22">
    <rdf:RDF>
      <cc:Work
         rdf:about="">
        <dc:format>image/svg+xml</dc:format>
        <dc:type
           rdf:resource="http://purl.org/dc/dcmitype/StillImage" />
        <dc:title></dc:title>
      </cc:Work>
    </rdf:RDF>
  </metadata>
  <g
     transform="matrix(0.23,0,0,0.23,108.30307,33.797119)"
     id="g52"
     style="fill-rule:evenodd">
    <path
       d="m 444.2,-101.3 -29.51,7.494 -22.02,5.621 -1.405,15.93 -2.342,7.026 -4.684,67.92 30.45,-7.495 22.95,-5.621 1.874,-22.95 -24.83,7.495 -6.089,1.874 2.342,-18.27 3.747,-0.9368 20.14,-6.089 2.81,-18.74 -22.95,5.621 h -2.342 l 0.4684,-14.05 1.874,-0.4684 27.64,-7.026 1.874,-17.33 z"
       id="path24"
       inkscape:connector-curvature="0"
       style="fill:#000000" />
    <path
       d="m 536.3,-133.8 c -2.279,0.02 -4.527,0.1036 -6.781,0.25 -37.94,2.342 -77.31,8.412 -114.8,16.38 -43.56,8.9 -85.24,20.63 -120.8,31.88 -15.93,5.621 -31.38,10.28 -44.97,14.97 -20.6,7.49 -37.45,14.07 -49.62,19.22 -0.008,0.0034 -0.0231,-0.0034 -0.0312,0 -12.16,5.146 -19.66,8.876 -20.59,9.344 0,0 -3.262,15.01 -20.12,27.19 l 8.906,-1.875 -20.62,19.66 c 0,0 38.36,-21.05 52.44,-25.28 0.0109,0 0.0204,3.1e-5 0.0312,0 1.857,-0.0054 3.256,-0.4688 4.188,-0.4688 2.342,3.747 -0.4715,18.26 -4.219,36.53 -4.684,23.42 -11.22,52.95 -7.469,67.47 l 7.469,-7.031 0.4688,-0.4688 c 12.65,2.81 15.47,-7.5 15.47,-7.5 l 5.156,1.875 0.9375,-2.812 h 7.969 c 0,0 -0.022,-88.51 12.62,-103.5 0.468,-0.9368 3.284,-2.345 7.031,-4.219 9.368,-4.684 25.3,-11.26 44.97,-18.75 35.13,-13.12 82.43,-29.04 120.8,-39.81 14.05,-4.216 27.2,-7.502 37.97,-9.844 5.621,-0.9368 4.657,5.16 6.062,9.844 1.405,5.152 -3.282,10.32 -3.75,17.34 -0.9368,7.026 -2.781,70.72 -2.781,70.72 l 4.656,-1.875 6.562,0.4688 2.812,-7.031 4.688,3.281 2.812,-3.75 2.812,2.344 4.688,-1.406 c 5e-5,0 -1.396,-85.73 12.19,-94.62 7.495,-5.621 29.98,-6.562 44.5,-6.094 25.29,1.405 50.56,3.291 49.16,16.41 -1.405,13.12 -17.31,18.75 -17.31,18.75 l 3.75,4.219 -4.219,0.9375 v 6.062 l -7.5,2.344 1.875,2.344 -15.47,6.094 5.625,0.9375 -12.66,6.562 c 4e-5,0 54.35,-5.152 60.91,-41.69 3.952,-21.96 -31.63,-35.68 -65.81,-35.38 z"
       id="path26"
       inkscape:connector-curvature="0"
       style="fill:#000000" />
    <path
       d="m 381.5,-85.31 -45.91,14.97 -0.9375,16.41 -2.812,7.5 -1.875,47.31 -14.03,-13.59 c 0,0 4.219,-7.041 4.219,-20.62 0,-13.12 -11.26,-24.34 -22.5,-24.34 -0.9368,0 -2.344,0.4691 -3.75,0.9375 -11.7,2.339 -36.01,13.56 -44.94,18.25 -0.0104,0.0055 -0.0209,0.02581 -0.0312,0.03125 -1.854,0.9234 -3.25,1.375 -3.25,1.375 l 2.344,1.875 0.9062,2.719 v 0.09375 h 0.0312 l 0.4375,0.4688 3.281,2.344 0.9375,7.031 8.438,-2.812 c 0,0 -3.749,18.76 -2.344,28.12 l -10.75,4.188 h -0.0312 l -3.25,1.406 3.25,0.9375 h 0.0312 l 0.9062,0.4688 v 5.625 l 2.344,2.812 v 4.219 l 4.2,-1.42 -1.4,31.38 2.812,-3.75 4.219,-1.844 6.094,0.4688 v -4.219 l 6.094,0.9375 1.406,-3.75 h 7.5 l 0.4688,-24.84 c 0,0 4.661,-0.9399 10.28,-4.219 3.279,-1.405 6.565,-4.191 9.375,-8.406 l 22.03,22.94 7.469,-2.344 0.4688,-5.156 5.625,2.812 9.844,-0.9375 -1.406,-1.875 27.16,-8.438 3.281,-26.22 -28.56,9.375 1.406,-17.34 23.88,-8.906 0.4688,-18.25 -23.41,7.5 1.406,-15 27.62,-9.844 0.9375,-16.38 z m -87.59,46.38 c 4.684,0 9.843,1.849 8.906,8.406 -1.405,5.621 -5.159,9.846 -8.906,13.12 -4.684,3.747 -9.375,5.625 -9.375,5.625 -0.468,-13.58 3.281,-26.69 3.281,-26.69 0,0 2.815,-0.4688 6.094,-0.4688 z"
       id="path28"
       inkscape:connector-curvature="0"
       style="fill:#000000" />
    <path
       d="m 221.3,-101.2 c -7.494,1.874 -15.01,3.751 -22.03,5.625 -92.28,24.83 -126.9,54.8 -126.9,85.72 0,33.26 33.75,44.5 35.16,50.12 10.6,43.52 -103.7,64.14 -103.7,64.14 l 6.562,5.6 0.4688,5.625 8.906,10.78 10.75,1.875 3.281,6.531 18.28,-2.312 -0.9375,7 c 15.93,2.8 91.75,-27.1 109.6,-60.41 12.2,-23.42 5.2,-40.75 5.2,-40.75 -8,-28.57 -43.1,-29.98 -44,-55.28 -0.4684,-22.48 41.21,-43.57 77.28,-58.09 22.48,-8.9 43.13,-15.44 49.69,-17.31 1.811,-0.6246 2.344,-0.9375 2.344,-0.9375 0,0 -16.58,1.062 -24.84,1.406 v -3.281 h -7.031 z"
       id="path30"
       inkscape:connector-curvature="0"
       style="fill:#000000" />
    <path
       d="m 768.8,-53.94 c -43.09,6.089 -84.31,15.01 -117.6,23.91 -29.04,8.431 -52.01,16.38 -65.12,22 -3.279,1.405 -5.598,9.378 -11.69,14.06 -3.279,5.152 -7.501,12.19 -9.375,15 -0.2848,0.5757 -0.4062,1.125 -0.4062,1.125 0,0 0.3868,-0.1785 0.4062,-0.1875 22.6,-11.24 48.8,-20.62 53.9,-16.88 4.684,3.279 -0.4423,35.14 -7,96.03 -5.152,49.65 -7.503,93.66 -11.25,99.28 -3.747,6.089 -33.72,11.72 -33.72,11.72 l -1.875,1.875 -9.375,11.25 4.688,0.9062 -14.97,14.06 c 4.216,-1.874 11.22,-4.69 19.66,-7.5 v 0.0312 c 21.08,-7.026 53.4,-15.47 86.19,-23.44 37,-8.431 74.92,-15.91 98.81,-18.72 -5.152,-3.747 -12.16,-6.562 -12.16,-6.562 l 7.031,-4.219 -0.9375,-3.75 c 3e-5,5e-5 11.7,-6.566 29.97,-10.78 -38.88,2.81 -84.32,18.75 -90.88,12.19 -6.089,-7.026 12.19,-189.3 18.28,-195.3 6.558,-6.089 29.97,-7.938 29.97,-7.938 l 0.4688,-4.688 11.72,-10.31 14.5,-4.688 c 4e-5,0 1.413,-5.159 10.78,-8.438 z M 661.6,-9.16 c 3.373,-0.1232 5.739,2.794 6.562,5.812 2.342,4.216 -6.067,50.58 -12.16,122.2 -3.279,37 -3.751,50.6 -4.688,58.56 5e-5,0.9368 -0.4688,1.875 -0.4688,2.344 -4.216,19.2 -15,14.52 -17.34,5.156 -1.874,-8.9 11.25,-152.7 17.81,-183.2 0.9369,-2.81 1.407,-4.688 1.875,-5.156 2.81,-3.689 5.476,-5.373 7.719,-5.719 0.2336,-0.03602 0.4626,-0.08554 0.6875,-0.09375 z"
       id="path32"
       inkscape:connector-curvature="0"
       style="fill:#000000" />
    <path
       d="m 490.6,32.72 c -7.963,0.4684 -18.76,2.346 -30,5.156 -12.64,2.808 -25.73,6.536 -35.56,9.812 -0.009,0.003 -0.0222,-0.003 -0.0312,0 -3.269,0.9368 -6.54,2.347 -8.875,3.281 6.232,2.337 8.279,5.243 8.875,7.375 v 3.406 l 7.5,4.688 c 4e-5,0 6.099,-1.875 12.66,-2.344 2.342,35.6 -2.344,74.94 -2.344,74.94 l -17.78,4.219 h -0.0312 l -1.375,0.4688 1.375,2.281 v 0.0625 l 11.25,13.12 -1.406,6.094 2.812,-0.4688 c 4e-5,5e-5 -0.9461,14.98 -12.66,35.59 -2.342,4.684 -5.159,9.379 -8.906,14.53 2.342,1.405 5.628,0.4684 8.906,0 6.09,-2.342 11.72,-5.625 11.72,-5.625 l 20.59,-7.031 v 5.156 l 3.281,-1.875 4.688,-2.812 c 3e-5,5e-5 11.72,-26.24 11.72,-54.81 3e-5,3e-5 6.568,-1.878 13.59,-6.094 3.279,-1.405 6.065,-3.752 9.344,-6.562 25.29,28.1 42.62,55.75 42.62,55.75 l 9.375,-0.4688 1.875,-6.562 8.438,0.9375 2.344,-3.75 0.4688,0.9375 8.438,7.031 4.688,-5.625 6.562,1.406 c 0,0 -7.509,-8.416 -19.69,-21.06 -11.24,-12.18 -27.17,-29.04 -44.5,-46.38 7.495,-6.558 16.41,-14.52 17.34,-36.06 0.4684,-22.48 -13.11,-45.91 -41.22,-48.72 h -6.094 z m -9.062,23.38 c 3.167,-0.05063 6.296,0.354 9.062,0.9688 9.837,2.81 16.37,10.32 15.91,20.16 -0.9368,14.05 -7.943,23.88 -15.91,30.44 -3.747,3.747 -7.971,6.095 -11.25,7.5 4e-5,3e-5 -1.407,-35.14 -2.812,-58.56 1.171,-0.2342 2.417,-0.3956 3.625,-0.4688 0.4529,-0.02745 0.9226,-0.02402 1.375,-0.03125 z"
       id="path34"
       inkscape:connector-curvature="0"
       style="fill:#000000" />
    <path
       d="m 504.2,3.204 c -4.216,0.9368 -8.9,1.874 -13.58,3.279 -9.368,1.874 -19.2,4.684 -29.98,7.495 -11.24,2.81 -23.42,6.089 -35.6,9.837 -5.62,1.405 -11.24,3.279 -16.39,4.684 -41.22,12.65 -80.1,25.76 -98.37,34.19 -3.278,1.405 -6.089,2.81 -7.494,4.216 -4.684,2.81 -9.368,10.3 -9.368,10.3 l -5.152,9.837 c 0,4e-5 10.3,-5.152 22.02,-10.77 14.99,-6.089 31.38,-11.71 36.54,-7.494 6.089,6.558 -9.837,75.41 -4.216,133.5 1.874,-6.089 4.216,-4.684 4.216,-4.684 l 6.558,14.99 4.216,-6.558 9.368,19.2 0.4684,-11.24 2.81,2.342 c -3.279,-33.73 -0.9368,-146.6 11.71,-159.7 3.747,-3.747 14.05,-8.431 26.7,-12.65 5.153,-1.874 10.77,-3.747 16.39,-5.152 12.65,-3.747 25.76,-7.026 35.6,-9.368 11.24,-2.81 18.74,-4.216 18.74,-4.216 4e-5,0 2.342,-8.431 11.24,-11.71 1.405,-0.4684 1.874,-0.9368 3.279,-0.9368 5e-5,0 -3.279,-4.684 10.3,-9.368 z"
       id="path36"
       inkscape:connector-curvature="0"
       style="fill:#000000" />
    <path
       d="m 433.9,71.59 -8.9,2.81 -16.39,4.684 -22.95,6.558 -2.81,106.3 25.76,-7.494 14.99,-4.684 v -28.1 l -14.99,1.874 -5.621,0.4684 0.4684,-14.99 5.152,-1.405 13.12,-4.684 -0.4684,-5.152 4.216,-15.46 -16.86,4.216 -5.152,0.9368 1.405,-14.99 3.747,-0.9368 16.39,-4.684 2.342,-0.9368 4.216,-5.621 -4.216,-1.874 6.558,-16.86 z"
       id="path38"
       inkscape:connector-curvature="0"
       style="fill:#000000" />
    <path
       d="m 328.1,95.01 c 0,4e-5 -3.748,10.3 -8.9,2.342 -1.874,5.621 -5.62,7.495 -8.9,7.963 -1.405,0.4684 -2.342,0 -2.342,0 l -1.874,34.19 -10.3,4.684 3.279,-37.47 -4.684,4.684 -4.216,-4.684 -7.963,10.77 -1.874,-3.747 -3.747,2.81 -2.342,2.342 c 0,4e-5 -7.963,67.92 -4.684,98.37 2.81,-3.747 4.216,2.342 4.216,2.342 l 2.81,-3.747 0.4684,-0.9368 8.431,18.74 2.81,-11.71 6.089,2.81 v -52.93 l 11.71,-4.216 0.4684,46.37 3.747,2.342 6.089,2.342 1.405,-6.089 12.65,13.58 c 0,4e-5 -5.152,-77.29 2.342,-129.3 -2.81,2.81 -4.684,-1.874 -4.684,-1.874 z"
       id="path40"
       inkscape:connector-curvature="0"
       style="fill:#000000" />
    <path
       d="m 283.6,62.69 c -2.342,0.9368 -4.689,1.407 -7.031,2.344 -16.39,5.152 -31.38,10.32 -44.5,15 -19.7,7.5 -32.4,13.09 -32.4,13.09 l 2.344,-8.875 c 0,0 -12.63,7.939 -24.34,9.812 -4.2,0.48 -8.4,0.48 -11.7,-1.39 -17.8,6.55 -92.73,52.44 -108.2,76.34 -2.81,8.9 -11.72,24.4 -11.72,24.4 l -6.56,20.6 4.22,-0.5 -4.688,10.28 4.219,-1.406 v 6.094 c 0,4e-5 22.95,-30.92 44.03,-48.72 -2.81,16.39 -2.812,32.81 -2.812,32.81 l -7.031,7 -6.562,15 h 5.156 l -0.4688,5.625 4.688,-2.344 -1.875,6.562 h 4.219 c 0,4e-5 0.4708,22.95 3.281,36.53 l 14.53,4.688 2.812,-2.812 8.438,7.031 6.062,-5.625 c 0,4e-5 -1.874,-44.51 -0.9375,-63.72 7.495,-7.963 34.22,-22.94 34.22,-22.94 l 1.875,-8.438 -3.281,-9.375 9.812,-14.5 c -18.74,9.837 -42.16,23.88 -42.16,23.88 0,3e-5 1.878,-30.44 5.625,-36.53 3.279,-5.152 24.83,-19.67 54.81,-36.53 16.39,-8.9 34.67,-19.19 54.34,-29.03 14.52,-7.026 29.51,-14.07 44.5,-21.09 2.342,-0.9368 4.689,-1.876 7.031,-3.281 z"
       id="path42"
       inkscape:connector-curvature="0"
       style="fill:#000000" />
    <path
       d="m 263.4,115.6 c 0,3e-5 -15.45,3.288 -31.38,12.19 -15.93,9.368 -33.25,25.74 -35.12,51.97 -2.342,42.63 29.5,39.34 35.12,38.41 0.4684,3e-5 1.406,-0.4375 1.406,-0.4375 v 21.06 l 1.875,-5.156 3.75,2.344 5.125,-3.75 7.031,5.625 0.9375,-4.219 4.219,0.9375 1.875,-55.28 8.438,-3.281 -2.344,-17.31 -32.31,13.59 v -0.0312 l -7.031,2.812 7.031,11.72 h 0.4688 l 3.75,-0.4688 v 8.438 c 0,3e-5 -1.877,0.4688 -4.219,0.4688 -4.684,-0.4684 -12.66,-3.76 -11.72,-17.81 0.4684,-10.77 5.161,-17.79 11.72,-22.94 9.837,-7.963 22.94,-11.25 28.56,-16.41 l -4.219,-1.875 6.094,-3.281 0.9375,-17.31 z"
       id="path44"
       inkscape:connector-curvature="0"
       style="fill:#000000" />
    <path
       d="m 184.3,138.1 c -1.874,5.621 -4.216,9.837 -6.558,12.65 -4.684,7.495 -9.368,9.837 -9.368,9.837 0,3e-5 -10.3,44.03 -7.026,92.74 l 3.279,-1.874 4.684,3.279 3.279,-1.405 c 0,3e-5 2.342,4.684 5.152,7.963 2.81,2.81 6.089,4.684 9.368,2.81 2.342,-1.405 -3.279,-69.32 7.963,-112.4 0,3e-5 -6.558,4.684 -10.77,-13.58 z"
       id="path46"
       inkscape:connector-curvature="0"
       style="fill:#000000" />
    <path
       d="m 760.9,-60.62 c -43.56,6.089 -84.77,15.01 -118,24.38 -28.57,7.963 -52.01,15.91 -65.12,22 -3.279,0.9368 -5.599,8.91 -12.16,13.59 -2.338,5.143 -6.562,11.22 -8.906,14.5 -0.3462,0.5211 -0.5726,0.9626 -0.9062,1.406 0.331,-0.0625 0.539,-0.2709 0.9062,-0.4375 22.48,-11.24 48.72,-20.15 53.88,-16.41 5.152,3.747 -0.942,35.14 -7.031,96.03 -5.152,49.65 -7.503,93.66 -11.25,98.81 -3.279,6.089 -33.72,12.19 -33.72,12.19 l -1.875,1.875 -9.812,11.25 5.125,0.9375 -15.1,14 c 4.216,-1.874 11.22,-4.69 19.66,-7.5 v 0.0312 c 21.55,-7.026 53.4,-15.47 86.19,-22.97 37,-8.9 74.96,-16.38 98.84,-19.66 -5.152,-2.81 -12.66,-6.094 -12.66,-6.094 l 7.5,-4.219 -0.9375,-3.75 c 3e-5,3e-5 11.7,-6.566 29.97,-10.78 -38.88,2.81 -84.79,18.74 -90.88,11.72 -6.558,-7.026 12.19,-188.3 18.28,-194.8 6.089,-6.089 29.97,-7.969 29.97,-7.969 l 0.9375,-4.219 11.25,-10.31 14.5,-5.156 c 3e-5,0 1.413,-4.69 11.25,-8.438 z m -107.8,44.69 c 3.423,-0.0784 5.965,2.693 7.062,5.438 1.874,4.684 -6.567,51.05 -12.66,122.7 -3.747,37.94 -3.282,51.07 -4.688,58.56 3e-5,0.9368 -0.4688,1.875 -0.4688,2.344 -4.216,19.67 -15,14.52 -17.34,5.156 -1.874,-9.368 11.72,-156 17.81,-184.1 0.4684,-2.342 0.9382,-3.751 1.875,-4.688 2.81,-3.513 5.452,-5.073 7.719,-5.375 0.2362,-0.0315 0.4593,-0.0573 0.6875,-0.0625 z M 495.8,-3.47 c -4.216,1.405 -8.878,2.344 -13.56,3.281 -8.9,1.874 -19.23,4.69 -30,7.5 -11.24,2.81 -23.42,6.096 -35.59,9.375 -5.621,1.874 -10.75,3.72 -16.38,5.125 -40.28,12.18 -78.7,25.79 -97.44,33.75 -4.216,1.874 -7.032,3.751 -8.906,4.688 -3.747,2.81 -8.906,10.75 -8.906,10.75 l -4.688,9.375 c 0,0 10.32,-5.629 22.5,-10.78 14.05,-6.089 30.44,-11.68 35.12,-7 6.558,6.089 -9.839,74.92 -3.75,133 1.873,-6.089 3.75,-4.656 3.75,-4.656 l 7.5,14.97 3.75,-6.562 9.375,19.22 0.4688,-11.25 2.812,2.344 c -3.4,-33.6 -0.6,-146.4 11.6,-159.6 3.748,-3.747 14.07,-8.441 26.72,-12.66 5.153,-1.874 10.75,-3.751 16.38,-5.156 12.65,-3.747 25.76,-7.033 35.59,-9.375 l 18.75,-4.656 c 4e-5,0 2.819,-7.503 11.25,-11.25 1.405,-0.4684 2.344,-0.9375 3.281,-0.9375 3e-5,0 -3.303,-5.159 10.28,-9.375 z m -13.56,29.5 c -7.963,0.4684 -18.76,2.346 -30,5.156 -12.65,2.81 -25.76,6.565 -35.59,9.844 -3.279,0.9368 -6.564,2.344 -8.906,2.812 11.24,4.684 8.438,10.78 8.438,10.78 l 0.4688,0.4688 7.031,4.688 c 4e-5,0 6.567,-1.875 12.66,-2.344 3.279,35.6 -1.875,74.94 -1.875,74.94 l -17.78,4.219 h -0.0312 l -1.844,0.4688 1.844,2.75 v 0.0625 l 10.78,12.62 -1.406,6.094 3.75,-0.4688 c 7e-5,4e-5 -1.883,15.45 -13.12,35.59 v 0.0625 c -2.336,4.664 -5.144,9.339 -8.875,14.47 2.335,0.934 5.605,0.4626 8.875,-0.4688 0.01,-0.003 0.0217,0.003 0.0312,0 6.078,-1.875 11.69,-5.156 11.69,-5.156 l 20.59,-7.031 v 5.156 l 3.281,-1.875 4.688,-2.812 c 3e-5,5e-5 11.72,-26.21 11.72,-54.78 4e-5,4e-5 6.568,-1.878 13.59,-6.094 3.279,-1.405 6.534,-3.752 9.812,-6.562 24.83,28.1 42.16,55.75 42.16,55.75 l 8.906,-0.9375 2.344,-6.094 8.438,0.9375 1.875,-3.75 0.9375,1.406 8.438,6.562 4.688,-5.625 6.531,1.406 c 3e-5,3e-5 -7.478,-7.978 -19.66,-21.09 -11.24,-12.18 -27.17,-29.04 -44.5,-46.38 7.495,-6.558 16.41,-14.52 17.34,-35.59 0.4685,-22.95 -13.58,-46.38 -41.22,-49.19 z m -8.938,23.38 c 3.176,-0.0506 6.171,0.3852 8.938,1 9.837,2.81 15.91,10.29 15.91,20.59 -0.9368,13.58 -7.943,23.44 -15.91,30 -3.747,3.279 -7.972,6.064 -11.25,7.469 4e-5,3e-5 -1.408,-34.64 -2.812,-58.53 1.288,-0.2342 2.52,-0.3956 3.75,-0.4688 0.4611,-0.0274 0.9213,-0.0553 1.375,-0.0625 z M 275.202,56 c -2.342,0.9368 -4.689,1.407 -7.031,2.344 v 0.03125 c -16.39,5.152 -31.85,10.28 -44.5,14.97 -19.2,7.495 -31.84,13.12 -31.84,13.12 l 1.375,-8.906 c 0,0 -12.16,7.97 -23.88,9.844 -4.3,0.48 -8.6,0.48 -11.8,-1.39 -18.3,6.56 -93.24,52.9 -108.2,75.9 -2.342,9.368 -11.72,24.84 -11.72,24.84 l -6.562,20.59 4.688,-0.4688 -5.156,10.31 4.219,-1.406 v 6.094 c 0,3e-5 22.95,-30.92 44.03,-48.72 -2.81,16.39 -2.812,32.78 -2.812,32.78 l -7.031,7.5 -7,14.53 h 5.594 l -0.4688,5.625 4.688,-2.344 -1.875,6.531 h 3.75 c 0,3e-5 0.9396,22.98 3.75,36.09 l 15,5.125 2.344,-2.781 8.438,6.531 6.531,-5.156 c 0,3e-5 -2.343,-44.48 -1.406,-63.69 7.495,-7.963 33.75,-22.94 33.75,-22.94 l 2.344,-8.438 -3.75,-9.375 9.812,-14.53 c -18.74,9.837 -41.69,23.91 -41.69,23.91 0,3e-5 2.346,-30.91 5.625,-36.53 3.279,-5.621 24.83,-19.23 54.81,-36.56 16.39,-9.368 34.67,-18.73 54.34,-29.03 14.52,-7.026 29.51,-14.04 44.5,-21.06 V 59.3092 c 2.342,-0.9368 4.689,-2.344 7.031,-3.281 z m 149.9,8.906 -47.78,14.06 -2.812,106.3 25.78,-7.5 14.5,-4.688 v -28.56 l -20.12,2.812 0.4688,-15 5.156,-1.406 13.09,-4.219 -0.4688,-5.625 4.219,-15.44 -16.84,4.188 -5.156,1.406 1.406,-15.44 3.75,-0.9375 5.25,-1.531 13.47,-3.625 4.688,-6.094 -4.688,-1.875 z m -105,23.43 c 0,4e-5 -4.691,10.31 -9.375,2.812 -1.405,5.153 -5.159,7.032 -7.969,7.5 -1.874,3e-5 -3.281,0 -3.281,0 l -1.406,34.19 -10.78,4.688 3.281,-37.47 -5.156,4.688 -4.219,-4.688 -7.469,11.22 -2.344,-4.219 -3.281,2.812 -2.344,2.344 c 0,4e-5 -7.967,68.4 -5.156,98.38 3.279,-3.747 4.688,2.812 4.688,2.812 l 2.812,-3.75 0.9375,-1.406 7.969,18.75 3.25,-11.25 5.156,2.344 v -53.41 l 12.19,-3.75 0.4688,46.38 4.688,2.344 5.1,2.3 1,-6.1 12.6,13.6 c 0,5e-5 -5.15,-77.76 2.812,-129.3 -2.81,2.81 -4.188,-1.875 -4.188,-1.875 z m -65.1,20.56 c 0,4e-5 -15.45,3.288 -31.38,12.19 -16.39,9.368 -33.72,25.77 -35.12,52 -2.81,42.63 29.5,38.87 35.12,38.41 0.4684,3e-5 1.406,-0.4688 1.406,-0.4688 v 21.09 l 1.875,-5.156 3.75,2.344 5.594,-3.281 6.562,5.156 1,-4.1 4.219,0.9375 1.875,-55.28 8.438,-3.281 -1.875,-17.81 -32.78,14.06 -7.031,2.812 7.031,11.72 0.4688,0.4688 3.75,-0.9375 v 8.438 c 0,4e-5 -1.877,0.4688 -4.219,0.4688 -4.684,-0.9368 -12.66,-3.761 -11.72,-18.28 0.4684,-10.3 5.629,-17.32 11.72,-22.47 9.837,-7.963 22.94,-11.72 28.56,-16.41 l -4.219,-1.875 6.094,-2.812 z m -79.16,22.5 c -1.874,5.621 -4.22,9.846 -6.562,12.66 -4.684,7.495 -9.844,9.812 -9.844,9.812 0,4e-5 -10.31,44.04 -6.562,92.75 l 3.75,-1.875 3.75,3.281 3.75,-1.406 c 0,5e-5 2.346,5.159 5.156,8.438 2.81,2.81 6.096,4.217 9.375,2.344 2.342,-1.405 -3.273,-69.31 7.969,-112.9 0,4e-5 -6.097,5.143 -10.78,-13.12 z"
       stroke-miterlimit="4"
       id="path48"
       inkscape:connector-curvature="0"
       style="fill:url(#linearGradient4191);stroke:#000000;stroke-width:1.87399995;stroke-miterlimit:4;stroke-dasharray:none" />
    <path
       d="m 527.8,-138.5 c -2.282,0.0201 -4.527,0.0723 -6.781,0.2188 -38.41,2.342 -77.31,8.443 -114.8,16.41 -43.56,8.9 -85.24,20.6 -120.8,31.84 -15.93,5.152 -31.39,10.32 -44.97,15 -20.14,7.494 -37.45,14.04 -49.62,19.66 -12.18,4.684 -19.22,8.438 -20.62,9.375 0,0 -3.294,14.51 -20.16,26.69 l 8.906,-1.375 -21.06,19.19 c 0,0 39.82,-21.53 52.94,-25.28 1.405,-0.4684 2.782,-0.4688 3.719,-0.4688 2.81,3.279 0.0285,18.26 -3.719,36.06 -4.684,23.89 -11.25,53.39 -7.969,68.38 l 7.969,-7.5 0.9375,-0.4688 c 12.4,2.85 15.2,-7.43 15.2,-7.43 l 5.156,1.875 1.406,-2.812 h 7.5 c 0,0 -0.4591,-88.54 12.66,-103.5 0.4684,-0.9368 3.253,-2.345 7,-4.688 9.368,-4.216 25.3,-10.76 44.97,-18.25 35.6,-13.12 82.43,-29.04 120.8,-39.81 14.05,-4.216 27.2,-7.502 37.97,-9.844 5.621,-0.9368 4.658,4.691 6.531,9.844 1.406,4.684 -3.251,10.29 -4.188,17.78 -0.4688,6.558 -3.281,70.25 -3.281,70.25 l 5.125,-1.875 6.562,0.4688 2.344,-7 5.156,3.281 2.344,-3.75 3.281,2.812 4.688,-1.406 c 3e-5,0 -1.396,-86.19 12.19,-95.09 7.495,-5.621 29.98,-6.562 44.5,-6.094 24.83,1.405 50.09,3.291 48.69,16.41 -1.405,13.12 -16.38,18.72 -16.38,18.72 l 3.281,4.219 -4.219,0.4688 v 6.562 l -7.969,2.344 2.2,2.29 -15.47,6.094 5.625,1.406 -12.62,6.062 c 4e-5,0 54.32,-5.152 60.88,-42.16 4.391,-21.52 -31.58,-35.18 -65.81,-34.88 z m -314.5,32.1 c -7.963,2.342 -15.44,4.189 -22.47,6.062 -92.28,24.83 -127.4,54.8 -127.4,85.72 0,33.26 34.19,44.5 35.59,50.12 10.81,43.55 -103.5,64.18 -103.5,64.18 l 6.562,6.094 0.4688,5.125 9.375,10.78 10.28,1.875 3.281,6.562 18.28,-2.344 -1.406,7.031 c 16.39,2.81 92.26,-27.18 109.6,-59.97 12.65,-23.89 5.625,-41.22 5.625,-41.22 -8.4,-28.63 -43.5,-30.01 -43.5,-55.3 -0.9368,-22.48 40.78,-43.57 76.84,-58.09 22.48,-9.368 45.46,-16.36 52.02,-18.23 -1.7,-0.21 -18.1,0.97 -24.8,1.35 v -3.281 h -7.031 z m 222.5,0 -51.53,13.56 -1.406,15.94 -2.344,7.031 -4.688,67.91 53.88,-13.12 1.406,-22.47 -24.84,7.156 v -0.125 l -6.062,1.875 1.875,-17.81 23.88,-7.5 2.812,-18.72 -25.28,5.625 0.9375,-14.06 h 1.844 v -0.4688 l 27.19,-7.5 z M 373,-90 l -46.38,15 -0.4688,16.38 -2.812,7.5 -1.875,46.84 -14.03,-13.12 c 0,0 4.219,-7.01 4.219,-20.12 0,-13.58 -11.26,-24.81 -22.5,-24.81 -0.9364,0 -2.345,0.4375 -3.75,0.4375 -11.71,2.81 -36.07,14.07 -44.97,18.75 l -0.3438,0.1875 c -1.874,0.9368 -3.281,1.406 -3.281,1.406 l 2.344,1.875 0.9375,2.812 0.8125,0.75 3.281,2.344 0.9375,6.562 8.438,-2.812 c 0,0 -3.749,18.73 -2.344,28.09 l -10.75,4.219 h -0.0312 l -2.781,1.406 2.781,0.9375 h 0.0312 l 1.375,0.4688 v 5.625 l 1.875,2.344 v 4.219 l 4.219,-1.406 -1.406,31.38 2.812,-3.281 4.219,-1.875 6.094,0.4688 v -4.219 l 6.562,0.9375 1.406,-3.75 h 6.562 l 0.9375,-24.81 c 0,0 4.66,-0.9396 10.28,-3.75 3.279,-1.874 6.565,-4.691 9.375,-8.906 l 21.56,22.97 7.938,-2.344 0.4688,-5.625 5.625,2.812 9.8,-0.5 -1.4,-2.35 27.2,-7.966 3.281,-25.75 -28.09,8.875 1.406,-17.31 23.41,-8.438 0.9375,-18.28 -23.88,7.031 1.406,-14.97 27.62,-9.844 z m -87.59,46.38 c 4.684,0.4684 9.843,1.88 8.438,8.906 -0.9364,5.152 -4.691,9.846 -8.438,12.66 -4.684,4.216 -9.812,6.062 -9.812,6.062 0,-14.05 3.719,-27.16 3.719,-27.16 0,0 2.814,-0.4688 6.094,-0.4688 z"
       stroke-miterlimit="4"
       id="path50"
       inkscape:connector-curvature="0"
       style="fill:url(#linearGradient4193);stroke:#000000;stroke-width:1.87399995;stroke-miterlimit:4;stroke-dasharray:none" />
  </g>
</svg>
