<?xml version="1.0" encoding="UTF-8" standalone="no"?>
<svg
   xmlns:dc="http://purl.org/dc/elements/1.1/"
   xmlns:cc="http://creativecommons.org/ns#"
   xmlns:rdf="http://www.w3.org/1999/02/22-rdf-syntax-ns#"
   xmlns:svg="http://www.w3.org/2000/svg"
   xmlns="http://www.w3.org/2000/svg"
   xmlns:sodipodi="http://sodipodi.sourceforge.net/DTD/sodipodi-0.dtd"
   xmlns:inkscape="http://www.inkscape.org/namespaces/inkscape"
   id="svg2"
   height="98.438004"
   width="399.48999"
   version="1.1"
   sodipodi:docname="Zelda_Logo.svg"
   inkscape:version="0.92.3 (2405546, 2018-03-11)">
  <metadata
     id="metadata3831">
    <rdf:RDF>
      <cc:Work
         rdf:about="">
        <dc:format>image/svg+xml</dc:format>
        <dc:type
           rdf:resource="http://purl.org/dc/dcmitype/StillImage" />
        <dc:title></dc:title>
      </cc:Work>
    </rdf:RDF>
  </metadata>
  <defs
     id="defs3829" />
  <sodipodi:namedview
     pagecolor="#ffffff"
     bordercolor="#666666"
     borderopacity="1"
     objecttolerance="10"
     gridtolerance="10"
     guidetolerance="10"
     inkscape:pageopacity="0"
     inkscape:pageshadow="2"
     inkscape:window-width="1920"
     inkscape:window-height="1017"
     id="namedview3827"
     showgrid="false"
     inkscape:zoom="2.9879803"
     inkscape:cx="238.28805"
     inkscape:cy="120.53518"
     inkscape:window-x="-8"
     inkscape:window-y="-8"
     inkscape:window-maximized="1"
     inkscape:current-layer="svg2" />
  <text
     id="text2934"
     y="28.606762"
     x="291.05841"
     style="font-size:8.84384251px;fill:#ca010c;fill-opacity:1;stroke:#ca010c;stroke-width:0.40000001px;stroke-linecap:butt;stroke-linejoin:miter;stroke-opacity:1"
     xml:space="preserve"
     transform="scale(1.0000477,0.99995231)"><tspan
       style="fill:#ca010c;fill-opacity:1;stroke:#ca010c;stroke-width:0.40000001;stroke-opacity:1"
       y="28.606762"
       x="291.05841"
       id="tspan2936">®</tspan></text>
  <path
     id="path4"
     style="fill:#ca010c;stroke-width:0.40000001"
     d="m 267.57294,17.652504 5.67,5.95 -14.09,49.89 -7.37,6.01 20.71,-0.27 -4.83,-4.58 3.3,-14.95 11.07,0.08 3.01,14.63 -4.71,5.13 25.44,-0.19 -6.31,-6.01 -14.83,-55.49 z m 9.12286,22.027352 3.91707,13.856888 -7.40559,-0.24 z"
     inkscape:connector-curvature="0" />
  <path
     id="path6"
     style="fill:#ca010c;stroke-width:0.40000001"
     d="m 235.14422,18.619794 -15.41398,-0.565689 5.86854,5.694244 0.0771,50.514383 -7.91417,6.254172 20.47699,-0.899964 c 35.84786,-6.72724 29.87234,-62.228916 -3.09451,-60.997146 z m 2.72875,4.932866 c 12.06035,0.380018 18.91141,41.49834 0.46,50.610036 z"
     inkscape:connector-curvature="0" />
  <path
     id="path8"
     style="fill:#ca010c;stroke-width:0.40000001"
     d="m 82.612944,7.322504 -7.04,19.16 18.44,-14.48 36.439996,0.36 -54.479996,82.840004 66.229976,1.05 5.89145,-16.065728 35.10709,-0.410036 -0.39141,-27.911344 -8.6171,21.997104 -10.80579,-0.03996 0.0771,-21.985832 6.03148,-0.585688 5.82283,6.63714 -0.04,-19.445584 -5.97138,6.268548 -5.83149,-0.111412 -0.009,-21.034416 10.5258,-0.625689 9.08851,18.717137 0.27428,-23.877064 -37.51992,0.274273 4.89145,6.091379 0.19427,50.391484 -17.50859,15.625684 -39.679992,0.2 54.399982,-83 z"
     inkscape:connector-curvature="0" />
  <path
     id="path10"
     style="fill:#ca010c;stroke-width:0.40000001"
     d="m 183.9016,18.288229 26.3484,-0.428549 -6.14282,5.411447 0.27714,50.397137 5.7972,-0.15714 8.3457,-22.622824 0.35141,28.459892 -35.38562,-0.117136 7.73997,-5.422828 -0.42855,-50.685724 z"
     inkscape:connector-curvature="0" />
  <path
     id="path14"
     style="fill:#ca010c;stroke-width:0.40000001"
     d="m 214.97294,5.6825037 c -0.04,-4.56 5.48,-5.32 8.92,-4.32 l 0.04,2.68 c -0.56,-2.44 -3.24,-2.72 -5.28,-2.2 -0.88,0.64 -1.28,1.64 -1.56,2.68 0.16,2.04 0.16,5.1600003 2.92,5.6000003 0.64,-0.12 1.32,-0.16 2,-0.2 l 0.12,-3.12 c -0.44,-0.2800003 -0.84,-0.5600003 -1.28,-0.8400003 2.15196,0.565688 2.13775,0.43598 4.16,0 -0.24,0.2 -0.64,0.56 -0.84,0.7600003 v 3.4 c -3.48,1.4 -9.56,0.36 -9.2,-4.4400003 z"
     inkscape:connector-curvature="0" />
  <path
     id="path16"
     style="fill:#ca010c;stroke-width:0.40000001"
     d="m 237.89294,1.2425037 5.16,6.0800003 V 1.9675037 l -1.2,-0.805 c 1.56,0.28 1.64,0.32 3.36,0.08 l -1.2,0.76 v 8.7200003 l -7.04,-8.2000003 V 9.562504 l 1.48,1.2 c -1.91882,-0.492548 -2.02746,-0.565684 -3.72,0 l 1.28,-1.2 V 1.9225037 c -0.52,-0.24 -0.8,-0.48 -1.28,-0.72 1.48,0.28 1.2,-0.04 3.16,0.04 z"
     inkscape:connector-curvature="0" />
  <path
     id="path18"
     d="m 267.38794,1.0175037 c -1.96551,0.076136 -3.9125,1.075 -4.7,2.9875 -0.08,0.52 -0.1575,1.0775 -0.2375,1.6375 -0.08,1.9200003 0.9975,3.6450003 2.6375,4.5250003 3.8,1.96 8.93,-1.49 7.45,-5.8500003 -0.65875,-2.295 -2.92242,-3.386284 -5.15,-3.3 z m -0.2875,0.625 c 4.16733,-0.247556 4.675,7.8125003 0.5125,8.5625003 -1.16,-0.24 -2.0025,-1.0875 -2.5625,-2.0875 -0.16,-0.52 0.002,-1.15 -0.4375,-1.5500003 -0.12,-1.72 0.2,-3.6025 1.6,-4.7625 0.31,-0.095 0.60967,-0.145996 0.8875,-0.1625 z"
     style="fill:#ca010c;stroke-width:0.40000001"
     inkscape:connector-curvature="0" />
  <path
     id="path20"
     style="fill:#ca010c;stroke-width:0.40000001"
     d="m 163.3952,1.2922117 6.95549,-0.056568 0.63598,2.56402 c -0.84,-1.16 -1.45373,-2.43716 -3.13373,-1.91716 l 0.26746,7.6977483 c 0.2,0.08 1.05254,0.822252 1.25254,0.902252 -2.5851,-0.429116 -2.56804,-0.452548 -5.04,0.04 0.48,-0.28 0.92,-0.56 1.44,-0.76 V 1.8425037 c -1.64,-0.4 -2.33372,0.64402 -2.89372,1.92402 z"
     inkscape:connector-curvature="0" />
  <path
     id="path22"
     style="fill:#ca010c;stroke-width:0.40000001"
     d="m 171.37294,1.1625037 c 2.08,0.28 2.16,0.28 4.52,-0.04 -0.32,0.36 -0.72,0.64 -1.16,0.8 l 0.16,3.52 3.84,0.04 v -3.52 l -0.92,-0.84 c 1.88,0.48 1.96,0.48 4.36,0.08 l -1.2,0.64 V 9.682504 l 1,0.84 c -2.2,-0.4 -2.44,-0.36 -4.52,0.04 l 1.28,-0.743628 V 6.1225037 h -4.04 l 0.2,3.7600003 c 0.68,0.44 0.48,0.4 1.08,0.68 -2.16,-0.6 -2.2,-0.6 -4.36,0 l 0.685,-0.860624 -0.06,-7.9462523 z"
     inkscape:connector-curvature="0" />
  <path
     id="path24"
     style="fill:#ca010c;stroke-width:0.40000001"
     d="m 182.85294,1.2025037 c 2.32,0.56 3.94058,0.136568 6.94058,0.176568 0,0.84 0.19315,1.39716 0.15314,2.23716 -0.8699,-1.8049 -0.66499,-1.799608 -2.43999,-1.850884 l -1.83997,0.04 v 3.597156 l 2.34624,-0.04 1,-1.72 c -0.25334,1.96 -0.26667,1.92 0.08,3.9600003 l -1.08,-1.6400003 -2.34624,-0.08 v 4.2028443 l 2.57889,-0.07716 c 1.71078,-0.470296 1.82107,-0.900592 2.36735,-2.365688 0.08,0.92 0.08,1.84 0.08,2.76 -2.52,-0.24 -5.28,-0.32 -7.92,0.12 l 0.72,-0.56 V 1.7624997 c -0.16,-0.12 -0.48,-0.44 -0.64,-0.56 z"
     inkscape:connector-curvature="0" />
  <path
     id="path26"
     style="fill:#ca010c;stroke-width:0.40000001"
     d="m 196.85294,1.1225037 c 2.14226,0.306276 2.36118,0.379412 4.6,0.04 l -1.2403,0.898436 0.0403,7.7415643 c 1.96,0.44 4.32,0.08 4.68,-2.32 0.24,0.96 0.16,1.96 0.16,2.92 -3.11,-0.02512 -5.44756,-0.524156 -8.10059,0.12 l 1.17559,-0.955004 -0.075,-7.5649963 z"
     inkscape:connector-curvature="0" />
  <path
     id="path28"
     d="m 250.16294,1.0925037 c -2.01359,0.01696 -2.36,0.4975 -4.075,0.1125 l 1.0625,0.825 -0.1375,7.8500003 -1,0.6875 c 1.96,-0.52 1.68,0.07 5.6,-0.05 6.11754,-0.142084 5.525,-9.4400003 -0.475,-9.4000003 -0.365,-0.02 -0.68734,-0.02744 -0.975,-0.025 z m 0.25,0.475 c 4.04,0.08 4.7225,5.9550003 1.9625,8.0750003 -0.96,0.32 -1.6775,0.64 -3.0375,0.2 -0.16,-2.68 -0.05,-5.3200003 -0.05,-8.0000003 0.28,-0.04 0.845,-0.195 1.125,-0.275 z"
     style="fill:#ca010c;stroke-width:0.40000001"
     inkscape:connector-curvature="0" />
  <path
     id="path30"
     style="fill:#ca010c;stroke-width:0.40000001"
     d="m 273.89294,1.2825037 c 2.32261,0.523908 2.52215,0.0032 7.64,0.04 -0.04,0.84 0,1.72 -0.04,2.56 -0.24,-0.48 -0.44,-0.96 -0.64,-1.44 -0.2,-0.16 -0.6,-0.4 -0.8,-0.56 -0.92,-0.04 -1.8,-0.08 -2.72,-0.12 -0.12,1.2 -0.08,2.4 -0.08,3.64 1.52,0.28 2.6,-0.24 3.28,-1.64 -0.08,1.24 -0.08,2.52 0,3.7600003 -0.68,-1.4800003 -1.88,-1.9200003 -3.44,-1.6000003 0.12,1.3200003 0.2,2.6400003 0.2,3.9600003 0.2,0.16 0.56,0.48 0.76,0.68 -1.49047,-0.601908 -2.80026,-0.401 -4.08,0 l 1.165,-0.855 -0.125,-7.7450003 c -0.4,-0.2 -0.76,-0.44 -1.12,-0.68 z"
     inkscape:connector-curvature="0" />
  <path
     id="path36"
     style="fill:#ef9fa1;stroke-width:0.40000001"
     d="m 135.51011,16.07678 -12.89717,24.605724 -5.2,2.52 z"
     inkscape:connector-curvature="0" />
  <path
     id="path38"
     style="fill:#7d0609;stroke-width:0.40000001"
     d="m 135.51863,16.02254 -17.86569,26.779964 -0.48,-5.12 z"
     inkscape:connector-curvature="0" />
  <path
     id="path40"
     style="fill:#ef9fa1;stroke-width:0.40000001"
     d="m 185.21294,16.242504 c 8.72,0.52 17.44,0.04 26.16,0.24 -0.84,0.84 -1.72,1.720001 -2.88,2.080001 -7.52,-0.12 -15.08,-0.08 -22.6,-0.04 -0.16,-0.04 -0.44,-0.16 -0.56,-0.24 -0.04,-0.680001 -0.08,-1.360001 -0.12,-2.040001 z"
     inkscape:connector-curvature="0" />
  <path
     id="path42"
     style="fill:#7d0609;stroke-width:0.40000001"
     d="m 211.65294,16.202504 0.67348,2.345796 -6.63348,5.014204 0.24,49.2 -2.56,1.68 -0.32,-52.459893 5.44,-3.420106 z"
     inkscape:connector-curvature="0" />
  <path
     id="path44"
     style="fill:#ef9fa1;stroke-width:0.40000001"
     d="m 218.49294,16.442504 c 9.96,0.2 19.9101,-1.04 29.4301,2.560001 l -1.7901,1.92 c -7.84,-3.440001 -16.6,-2.12 -24.88,-2.4 l -4.56,0.04 z"
     inkscape:connector-curvature="0" />
  <path
     id="path46"
     style="fill:#ef9fa1;stroke-width:0.40000001"
     d="m 266.68149,16.482504 h 19.13145 l -2,1.760001 h -18.56 z"
     inkscape:connector-curvature="0" />
  <path
     id="path48"
     style="fill:#7d0609;stroke-width:0.40000001"
     d="m 285.81294,16.482504 0.28,-0.32 14.24,55.76 7.4,7.16 -0.16,2.04 -28.68,0.2 -0.64,-2.32 3.72,-0.16 22.04,-0.08 -5.6,-4.72 -14.6,-55.719999 z"
     inkscape:connector-curvature="0" />
  <path
     id="path50"
     style="fill:#7d0609;stroke-width:0.40000001"
     d="m 185.21294,16.242504 0.12,2.040001 6.32,4.399999 -2.76,0.48 -3.6,-2.159999 v 21.719999 l -4.6,0.04 2,-1.68 -0.04,-22.599999 z"
     inkscape:connector-curvature="0" />
  <path
     id="path52"
     style="fill:#7d0609;stroke-width:0.40000001"
     d="m 216.69294,18.562505 c 1.52,0 3.04,-0.04 4.56,-0.04 1.64,1.72 3.64,3.04 5.4,4.639999 -0.92,0.6 -1.88,1.08 -2.96,1.32 -2.28,-2.079999 -4.64,-3.959999 -7,-5.919999 z"
     inkscape:connector-curvature="0" />
  <path
     id="path54"
     style="fill:#7d0609;stroke-width:0.40000001"
     d="m 265.49867,18.242505 h 3.59427 l 5.2,5.239999 -2.65145,0.157139 z"
     inkscape:connector-curvature="0" />
  <path
     id="path56"
     style="fill:#ef9fa1;stroke-width:0.40000001"
     d="m 271.73866,23.762504 2.55428,-0.28 -14.2,50.6 -6.2,4.6 -3.84,2.64 -0.44,-2.36 8.64,-6.6 z"
     inkscape:connector-curvature="0" />
  <path
     id="path58"
     style="fill:#7d0609;stroke-width:0.40000001"
     d="m 246.13294,20.922505 1.80424,-1.881415 c 12.56,5.28 16.67576,20.161414 15.55576,32.681414 -0.28,6.2 -1.56,12.52 -5,17.8 -5.12,8.6 -15.76,11.88 -25.28,11.72 -27.96,0.16 -55.92,-0.04 -83.92,0.08 l -5.64,16.080004 H 74.372944 l -1.4,-2.32 68.291236,0.36 6.36873,-16.854244 35.10003,0.13424 v -26.2 l 2.68,-1.84 -0.12,25.68 -0.6,2.448 33.6,-0.048 v -26 l 2.68,-2.48 v 24.8 l -1.12,3.8 19.44,-0.32 c 8.76,-0.76 17,-6.8 19.4,-15.4 4.44,-14.44 3.24,-35.32 -12.56,-42.239999 z"
     inkscape:connector-curvature="0" />
  <path
     id="path60"
     style="fill:#7d0609;stroke-width:0.40000001"
     d="m 162.41294,22.042505 12.5771,-0.0029 -1.9371,1.962879 h -7.96 l -0.08,0.32 v 19.48 l -2.48,1.84 z"
     inkscape:connector-curvature="0" />
  <path
     id="path62"
     style="fill:#ef9fa1;stroke-width:0.40000001"
     d="m 174.81294,22.002505 7.88,19.079999 -2,1.68 -0.12,0.08 -7.52,-18.84 z"
     inkscape:connector-curvature="0" />
  <path
     id="path64"
     style="fill:#ef9fa1;stroke-width:0.40000001"
     d="m 236.17294,22.042505 c 12.2,1.919999 15.12,16.919999 15.12,27.199999 -0.28,9.92 -3.04,24.36 -14.72,26.24 l 2.56,-2.96 c 3.4,-1.12 5.04,-4.72 6.4,-7.76 4.12,-11.04 4.12,-24.08 -1.12,-34.76 -1.24,-2.12 -2.76,-4.52 -5.32,-5.16 z"
     inkscape:connector-curvature="0" />
  <path
     id="path68"
     style="fill:#7d0609;stroke-width:0.40000001"
     d="m 236.37294,22.242505 2.72,2.599999 0.04,47.68 -2.32,2.68 z"
     inkscape:connector-curvature="0" />
  <path
     id="path70"
     style="fill:#ef9fa1;stroke-width:0.40000001"
     d="m 191.65294,22.682504 0.4,51.36 -7.24,4.8 0.48,-2.48 4.08,-3.12 -0.48,-50.08 z"
     inkscape:connector-curvature="0" />
  <path
     id="path74"
     style="fill:#ef9fa1;stroke-width:0.40000001"
     d="m 223.69294,24.482504 2.96,-1.32 -0.04,51.92 -6.76,3.8 1.12,-3.8 3.04,-1.52 z"
     inkscape:connector-curvature="0" />
  <path
     id="path76"
     style="fill:#ef9fa1;stroke-width:0.40000001"
     d="m 149.57294,24.082504 2.56,-0.64 -0.04,51.68 -18.68,15.04 -39.679996,0.2 0.12,-0.44 4.4,-2.08 34.479996,0.08 16.92,-14.24 z"
     inkscape:connector-curvature="0" />
  <path
     id="path82"
     style="fill:#ef9fa1;stroke-width:0.40000001"
     d="m 277.01294,35.362504 5,19.16 h -10.64 l 3.24,-2.28 4.36,0.24 -2.16,-8 z"
     inkscape:connector-curvature="0" />
  <path
     id="path84"
     style="fill:#7d0609;stroke-width:0.40000001"
     d="m 277.01294,35.802504 -0.2,8.68 -2.2,7.76 -3.08,2.274276 z"
     inkscape:connector-curvature="0" />
  <path
     id="path86"
     style="fill:#ef9fa1;stroke-width:0.40000001"
     d="m 175.01294,36.402504 2.64,0.88 -2.96,2.8 -4.8,5.8 -7.36,-0.24 2.48,-1.84 3.88,0.04 z"
     inkscape:connector-curvature="0" />
  <path
     id="path88"
     style="fill:#7d0609;stroke-width:0.40000001"
     d="m 174.69294,40.082504 c 0.88,-1.04 1.92,-1.92 2.96,-2.8 0,7.28 0.04,14.56 0,21.84 -0.04,0.12 -0.16,0.32 -0.2,0.44 -0.36,0.12 -0.76,0.24 -1.16,0.36 -0.68,0.2 -1.36,0.32 -2.04,0.48 -1.8,-2.64 -3.64,-5.24 -5.44,-7.88 -1.2,-0.04 -2.36,-0.04 -3.56,-0.04 h -0.44 c 0,6.72 0.08,13.44 0,20.16 -0.84,0.68 -1.68,1.32 -2.48,2 -0.04,-8.24 -0.04,-16.48 -0.04,-24.68 2.44,0.04 4.88,0.04 7.32,0 2,1.96 3.36,4.4 5.12,6.52 0.04,-5.48 0.08,-10.96 -0.04,-16.4 z"
     inkscape:connector-curvature="0" />
  <path
     id="path90"
     style="fill:#7d0609;stroke-width:0.40000001"
     d="m 109.09294,49.562504 5.36,-2.12 0.44,4.8 -5,2.04 z"
     inkscape:connector-curvature="0" />
  <path
     id="path92"
     style="fill:#ef9fa1;stroke-width:0.40000001"
     d="m 216.41294,50.442504 4.48849,-0.128488 -2.60849,2.448488 -7.76,21.920001 -7.32,0.04 2.72,-1.96 2.84,-0.16 z"
     inkscape:connector-curvature="0" />
  <path
     id="path94"
     style="fill:#ef9fa1;stroke-width:0.40000001"
     d="m 180.77294,50.842504 4.51427,-0.03712 -2.55427,1.71712 -7.72,22.160001 h -12.68 v -0.04 l 2.48,-2 8.72,-0.12 z"
     inkscape:connector-curvature="0" />
  <path
     id="path96"
     style="fill:#ef9fa1;stroke-width:0.40000001"
     d="m 109.89294,54.282504 2.08,-3.2 2.76,1.28 -5,2.16 z"
     inkscape:connector-curvature="0" />
  <path
     id="path98"
     style="fill:#7d0609;stroke-width:0.40000001"
     d="m 270.37294,58.762504 12.48,0.08 -2.04,2.080001 -8.52,0.12 -3.44,13.32 5.56206,4.727067 -0.68206,1.992932 -23.68,0.24 3.84,-2.64 16.96,0.08 -4.6,-3.52 z"
     inkscape:connector-curvature="0" />
  <path
     id="path100"
     style="fill:#ef9fa1;stroke-width:0.40000001"
     d="m 282.85294,58.842504 0.08,0.320001 3.4,15.839999 -4.47714,3.84 -3.61145,0.16 5.43714,-4.757135 -2.86855,-13.322864 z"
     inkscape:connector-curvature="0" />
  <path
     id="path102"
     style="fill:#7d0609;stroke-width:0.40000001"
     d="m 101.41294,61.842505 5.48,-1.96 v 4.36 L 88.212944,86.362504 Z"
     inkscape:connector-curvature="0" />
  <path
     id="path104"
     style="fill:#ef9fa1;stroke-width:0.40000001"
     d="m 104.13294,63.042505 2.84,1.36 -18.251444,21.588619 z"
     inkscape:connector-curvature="0" />
  <path
     id="path106"
     style="fill:#ef9fa1;stroke-width:0.40000001"
     d="m 80.612944,4.6025037 c 23.519996,-0.2 47.119996,0.2 70.599996,-0.24 l -0.32,0.28 c -0.92,0.88 -1.76,1.88 -2.76,2.7200003 -21.84,-0.12 -43.68,-0.04 -65.519996,-0.04 -2.28,6.4 -4.76,12.720001 -7.04,19.16 -1.28,1.24 -2.72,2.24 -4.12,3.28 2.96,-8.439999 6.28,-16.72 9.16,-25.1600003 z"
     inkscape:connector-curvature="0" />
  <path
     id="path108"
     style="fill:#7d0609;stroke-width:0.40000001"
     d="m 148.13294,7.362504 2.76,-2.7200003 1,2.6000003 -6.70282,9.977104 6.92278,6.284328 -2.53996,0.578568 -5.64,-4.799999 -45.679996,68.559999 -4.4,2.08 z"
     inkscape:connector-curvature="0" />
  <path
     id="path110"
     style="fill:#7d0609;stroke-width:0.40000001"
     d="m 94.012944,12.002504 36.439996,0.36 -4.4,1.96 -31.319996,-0.04 -21.48,17.24 -1.8,-1.76 z"
     inkscape:connector-curvature="0" />
  <path
     id="path112"
     style="fill:#ef9fa1;stroke-width:0.40000001"
     d="M 130.81294,12.242504 75.972944,95.202508 h -3 L 126.05294,14.322504 Z"
     inkscape:connector-curvature="0" />
  <path
     id="path114"
     style="fill:#ef9fa1;stroke-width:0.40000001"
     d="m 144.77294,17.842504 c 0.36,-0.52 0.76,-1.04 1.12,-1.56 13,0.44 26.04,0 39.04,0.2 -0.76,0.68 -1.52,1.36 -2.28,2.000001 -11.96,0.04 -23.92,-0.04 -35.88,0.04 -0.68,-0.2 -1.36,-0.44 -2,-0.680001 z"
     inkscape:connector-curvature="0" />
  <path
     id="path116"
     style="fill:#ca010c;stroke-width:0.40000001"
     d="m 206.15902,1.2025037 c 2.32,0.56 3.94058,0.136568 6.94058,0.176568 0,0.84 0.19315,1.39716 0.15314,2.23716 -0.8699,-1.8049 -0.665,-1.799608 -2.44,-1.850884 l -1.83996,0.04 v 3.597156 l 2.34624,-0.04 1,-1.72 c -0.25334,1.96 -0.26667,1.92 0.08,3.9600003 l -1.08,-1.6400003 -2.34624,-0.08 v 4.2028443 l 2.57889,-0.07716 c 1.71078,-0.470296 1.82107,-0.900592 2.36735,-2.365688 0.08,0.92 0.08,1.84 0.08,2.76 -2.52,-0.24 -5.28,-0.32 -7.92,0.12 l 0.72,-0.56 V 1.7624997 c -0.16,-0.12 -0.48,-0.44 -0.64,-0.56 z"
     inkscape:connector-curvature="0" />
  <path
     id="path118"
     style="fill:#ca010c;stroke-width:0.40000001"
     d="m 226.12798,1.2025037 c 2.32,0.56 3.94058,0.136568 6.94058,0.176568 0,0.84 0.19315,1.39716 0.15314,2.23716 -0.8699,-1.8049 -0.66499,-1.799608 -2.43999,-1.850884 l -1.83997,0.04 v 3.597156 l 2.34624,-0.04 1,-1.72 c -0.25334,1.96 -0.26667,1.92 0.08,3.9600003 l -1.08,-1.6400003 -2.34624,-0.08 v 4.2028443 l 2.57889,-0.07716 c 1.71078,-0.470296 1.82107,-0.900592 2.36735,-2.365688 0.08,0.92 0.08,1.84 0.08,2.76 -2.52,-0.24 -5.28,-0.32 -7.92,0.12 l 0.72,-0.56 V 1.7624997 c -0.16,-0.12 -0.48,-0.44 -0.64,-0.56 z"
     inkscape:connector-curvature="0" />
</svg>
