<?xml version="1.0" encoding="UTF-8" standalone="no"?>
<!-- Created with Inkscape (http://www.inkscape.org/) -->

<svg
   xmlns:dc="http://purl.org/dc/elements/1.1/"
   xmlns:cc="http://creativecommons.org/ns#"
   xmlns:rdf="http://www.w3.org/1999/02/22-rdf-syntax-ns#"
   xmlns:svg="http://www.w3.org/2000/svg"
   xmlns="http://www.w3.org/2000/svg"
   xmlns:sodipodi="http://sodipodi.sourceforge.net/DTD/sodipodi-0.dtd"
   xmlns:inkscape="http://www.inkscape.org/namespaces/inkscape"
   version="1.0"
   width="400"
   height="100"
   id="svg728"
   sodipodi:docname="Classic_logo.svg"
   inkscape:version="0.92.3 (2405546, 2018-03-11)">
  <metadata
     id="metadata732">
    <rdf:RDF>
      <cc:Work
         rdf:about="">
        <dc:format>image/svg+xml</dc:format>
        <dc:type
           rdf:resource="http://purl.org/dc/dcmitype/StillImage" />
        <dc:title></dc:title>
      </cc:Work>
    </rdf:RDF>
  </metadata>
  <sodipodi:namedview
     pagecolor="#ffffff"
     bordercolor="#666666"
     borderopacity="1"
     objecttolerance="10"
     gridtolerance="10"
     guidetolerance="10"
     inkscape:pageopacity="0"
     inkscape:pageshadow="2"
     inkscape:window-width="1920"
     inkscape:window-height="1017"
     id="namedview730"
     showgrid="false"
     inkscape:zoom="1.2358241"
     inkscape:cx="561.31266"
     inkscape:cy="174.93022"
     inkscape:window-x="-8"
     inkscape:window-y="-8"
     inkscape:window-maximized="1"
     inkscape:current-layer="svg728" />
  <defs
     id="defs666" />
  <path
     d="m 299.51201,54.54399 c 0,0 -10e-6,0.64063 0,0.64063 0,0 1.33594,0 1.33594,0 0,0 0,3.57812 0,3.57812 0,0 0.73438,0 0.73437,0 0,0 1e-5,-3.57812 0,-3.57812 0,0 1.34375,0 1.34375,0 0,0 0,-0.64062 0,-0.64063 0,0 -3.41407,10e-6 -3.41406,0 z m 3.89062,0 c 0,0 0,4.21875 0,4.21875 0,0 0.70313,0 0.70313,0 0,0 0,-3.25781 0,-3.25781 0,0 0.0156,0 0.0156,0 0,0 1.16407,3.25781 1.16407,3.25781 0,0 0.60937,0 0.60937,0 0,0 1.17188,-3.25781 1.17188,-3.25781 0,0 0.0156,0 0.0156,0 0,0 -1e-5,3.25781 0,3.25781 0,0 0.70312,0 0.70313,0 0,0 -1e-5,-4.21874 0,-4.21875 0,0 -1.03125,10e-6 -1.03125,0 0,0 -1.13281,3.30469 -1.13282,3.30469 0,0 -0.0156,0 -0.0156,0 0,0 -1.16406,-3.30468 -1.16406,-3.30469 0,0 -1.03907,10e-6 -1.03907,0 z"
     style="fill:#000000;stroke-width:0.25"
     id="path668"
     inkscape:connector-curvature="0" />
  <path
     d="m 292.86887,29.90583 c 0,0 -0.20125,-0.59344 -0.23625,-0.69813 0.66531,-2.67562 1.34656,-5.41687 1.34656,-5.41687 1.23719,-4.97594 4.29031,-14.6225 4.32156,-14.71875 0,0 1.75313,-5.5318803 1.75313,-5.5318803 0,0 -5.76282,-0.6875 -5.76282,-0.6875 -0.46062,-0.0547 -11.35375,-1.33968 -17.19968,-0.82656 -9.26438,0.80781 -15.89875,5.31625 -20.02906,11.1337503 0,0 0.004,-11.2181203 0.004,-11.2181203 0,0 -46.86718,0 -46.86718,0 0,0 0,7.0203103 0,7.6768703 -1.00125,-1.8556203 -4.14156,-7.6768703 -4.14156,-7.6768703 0,0 -26.11156,0 -26.11156,0 0,0 0,9.1478103 0,9.1478103 -5.46875,-6.6840603 -14.14657,-10.0818803 -24.54875,-9.3165603 -8.335,0.60531 -16.25563,5.05875 -20.66156,11.4965603 1.15625,-4.12938 2.21812,-7.9209403 2.21812,-7.9209403 0,0 -4.84,-1.19625 -4.84,-1.19625 -0.40625,-0.0978 -4.03219,-0.96062 -6.22687,-1.2825 -4.31063,-0.64031 -8.95563,-1.18687 -13.65969,-0.83969 -6.09469,0.44469 -13.665,1.755 -18.15562,7.9878203 -2.25813,3.11875 -3.39813,6.89718 -3.39813,11.25281 0,0.77843 0.0362,1.57562 0.10906,2.39156 0.47375,5.32156 2.43657,8.64687 5.07125,10.80531 -0.32968,1.11906 -4.75875,19.125 -4.75875,19.125 0,0 6.80907,1.08375 6.80907,1.08375 1.48937,0.22531 3.02937,0.45875 4.50375,0.56937 0.0115,10e-4 1.0225,0.0766 1.0225,0.0766 4.57593,0.34156 9.30812,0.69437 14.30593,0.32531 6.08406,-0.45656 11.53844,-3.23656 14.97094,-7.63031 0.82656,-1.05719 1.5125,-2.20407 2.08469,-3.40875 5.00562,6.945 13.43875,11.17843 23.10843,11.09687 7.8425,-0.0662 16.47719,-3.27812 22.04563,-10.11594 0,0 0,10.085 0,10.085 0,0 23.64499,0 23.64499,0 0,0 0,-6.23562 0,-6.23562 0,0 3.05375,6.23562 3.05375,6.23562 0,0 50.39937,0 50.39937,0 0,0 0.005,-10.39843 0.005,-10.39843 3.38781,4.54031 8.5225,8.14093 15.64594,9.67656 6.13031,1.31781 12.19031,0.2625 17.53906,-0.66781 0,0 9.50781,-1.53875 9.50781,-1.53875 0,0 -1.4125,-5.24594 -1.4125,-5.24594 -1.64281,-5.58 -3.41781,-11.53562 -5.46063,-17.59437 z"
     style="fill:none;stroke:#000000;stroke-width:0.31812498;stroke-linecap:butt;stroke-linejoin:miter;stroke-miterlimit:79.84031677;marker-start:none;marker-end:none"
     id="path670"
     inkscape:connector-curvature="0" />
  <path
     d="m 292.86887,29.90583 c 0,0 -0.20125,-0.59344 -0.23625,-0.69813 0.66531,-2.67562 1.34656,-5.41687 1.34656,-5.41687 1.23719,-4.97594 4.29031,-14.6225 4.32156,-14.71875 0,0 1.75313,-5.5318803 1.75313,-5.5318803 0,0 -5.76282,-0.6875 -5.76282,-0.6875 -0.46062,-0.0547 -11.35375,-1.33968 -17.19968,-0.82656 -9.26438,0.80781 -15.89875,5.31625 -20.02906,11.1337503 0,0 0.004,-11.2181203 0.004,-11.2181203 0,0 -46.86718,0 -46.86718,0 0,0 0,7.0203103 0,7.6768703 -1.00125,-1.8556203 -4.14156,-7.6768703 -4.14156,-7.6768703 0,0 -26.11156,0 -26.11156,0 0,0 0,9.1478103 0,9.1478103 -5.46875,-6.6840603 -14.14657,-10.0818803 -24.54875,-9.3165603 -8.335,0.60531 -16.25563,5.05875 -20.66156,11.4965603 1.15625,-4.12938 2.21812,-7.9209403 2.21812,-7.9209403 0,0 -4.84,-1.19625 -4.84,-1.19625 -0.40625,-0.0978 -4.03219,-0.96062 -6.22687,-1.2825 -4.31063,-0.64031 -8.95563,-1.18687 -13.65969,-0.83969 -6.09469,0.44469 -13.665,1.755 -18.15562,7.9878203 -2.25813,3.11875 -3.39813,6.89718 -3.39813,11.25281 0,0.77843 0.0362,1.57562 0.10906,2.39156 0.47375,5.32156 2.43657,8.64687 5.07125,10.80531 -0.32968,1.11906 -4.75875,19.125 -4.75875,19.125 0,0 6.80907,1.08375 6.80907,1.08375 1.48937,0.22531 3.02937,0.45875 4.50375,0.56937 0.0115,10e-4 1.0225,0.0766 1.0225,0.0766 4.57593,0.34156 9.30812,0.69437 14.30593,0.32531 6.08406,-0.45656 11.53844,-3.23656 14.97094,-7.63031 0.82656,-1.05719 1.5125,-2.20407 2.08469,-3.40875 5.00562,6.945 13.43875,11.17843 23.10843,11.09687 7.8425,-0.0662 16.47719,-3.27812 22.04563,-10.11594 0,0 0,10.085 0,10.085 0,0 23.64499,0 23.64499,0 0,0 0,-6.23562 0,-6.23562 0,0 3.05375,6.23562 3.05375,6.23562 0,0 50.39937,0 50.39937,0 0,0 0.005,-10.39843 0.005,-10.39843 3.38781,4.54031 8.5225,8.14093 15.64594,9.67656 6.13031,1.31781 12.19031,0.2625 17.53906,-0.66781 0,0 9.50781,-1.53875 9.50781,-1.53875 0,0 -1.4125,-5.24594 -1.4125,-5.24594 -1.64281,-5.58 -3.41781,-11.53562 -5.46063,-17.59437 z"
     style="fill:#ffa61a;stroke-width:0.25"
     id="path672"
     inkscape:connector-curvature="0" />
  <path
     d="m 292.86887,29.90583 c 0,0 -0.20125,-0.59344 -0.23625,-0.69813 0.66531,-2.67562 1.34656,-5.41687 1.34656,-5.41687 1.23719,-4.97594 4.29031,-14.6225 4.32156,-14.71875 0,0 1.75313,-5.5318803 1.75313,-5.5318803 0,0 -5.76282,-0.6875 -5.76282,-0.6875 -0.46062,-0.0547 -11.35375,-1.33968 -17.19968,-0.82656 -9.26438,0.80781 -15.89875,5.31625 -20.02906,11.1337503 0,0 0.004,-11.2181203 0.004,-11.2181203 0,0 -46.86718,0 -46.86718,0 0,0 0,7.0203103 0,7.6768703 -1.00125,-1.8556203 -4.14156,-7.6768703 -4.14156,-7.6768703 0,0 -26.11156,0 -26.11156,0 0,0 0,9.1478103 0,9.1478103 -5.46875,-6.6840603 -14.14657,-10.0818803 -24.54875,-9.3165603 -8.335,0.60531 -16.25563,5.05875 -20.66156,11.4965603 1.15625,-4.12938 2.21812,-7.9209403 2.21812,-7.9209403 0,0 -4.84,-1.19625 -4.84,-1.19625 -0.40625,-0.0978 -4.03219,-0.96062 -6.22687,-1.2825 -4.31063,-0.64031 -8.95563,-1.18687 -13.65969,-0.83969 -6.09469,0.44469 -13.665,1.755 -18.15562,7.9878203 -2.25813,3.11875 -3.39813,6.89718 -3.39813,11.25281 0,0.77843 0.0362,1.57562 0.10906,2.39156 0.47375,5.32156 2.43657,8.64687 5.07125,10.80531 -0.32968,1.11906 -4.75875,19.125 -4.75875,19.125 0,0 6.80907,1.08375 6.80907,1.08375 1.48937,0.22531 3.02937,0.45875 4.50375,0.56937 0.0115,10e-4 1.0225,0.0766 1.0225,0.0766 4.57593,0.34156 9.30812,0.69437 14.30593,0.32531 6.08406,-0.45656 11.53844,-3.23656 14.97094,-7.63031 0.82656,-1.05719 1.5125,-2.20407 2.08469,-3.40875 5.00562,6.945 13.43875,11.17843 23.10843,11.09687 7.8425,-0.0662 16.47719,-3.27812 22.04563,-10.11594 0,0 0,10.085 0,10.085 0,0 23.64499,0 23.64499,0 0,0 0,-6.23562 0,-6.23562 0,0 3.05375,6.23562 3.05375,6.23562 0,0 50.39937,0 50.39937,0 0,0 0.005,-10.39843 0.005,-10.39843 3.38781,4.54031 8.5225,8.14093 15.64594,9.67656 6.13031,1.31781 12.19031,0.2625 17.53906,-0.66781 0,0 9.50781,-1.53875 9.50781,-1.53875 0,0 -1.4125,-5.24594 -1.4125,-5.24594 -1.64281,-5.58 -3.41781,-11.53562 -5.46063,-17.59437 z"
     style="fill:none;stroke:#000000;stroke-width:0.63624996;stroke-linecap:butt;stroke-linejoin:miter;stroke-miterlimit:79.84031677;marker-start:none;marker-end:none"
     id="path674"
     inkscape:connector-curvature="0" />
  <path
     d="m 278.22824,6.8076997 c 5.41813,-0.47562 10.57688,-0.25718 15.41281,0.41157 0,0 1.37563,0.53187 0.80094,0.40062 -1.45031,4.9168803 -3.11469,9.8271903 -4.40375,15.0121903 -7.31781,-9.6775 -25.05812,7.97562 -14.81312,13.41156 3.08437,1.63156 7.51875,1.35719 10.00906,-0.60031 1.40062,-1.10844 2.72094,-2.58469 3.80344,-4.00375 1.94531,5.76687 3.65843,11.48374 5.40437,17.41468 -5.98625,0.80719 -13.24344,2.86 -20.01593,1.40188 C 249.78543,44.9452 252.63793,9.03989 278.22824,6.8076997 Z"
     style="fill:#0005de;stroke-width:0.25"
     id="path676"
     inkscape:connector-curvature="0" />
  <path
     d="m 113.29888,6.8186397 c 4.47875,-0.33094 9.07625,0.27594 12.61062,0.80125 2.04532,0.3 6.2425,1.3128103 5.80469,1.2003103 -0.97625,3.30907 -1.90812,6.62375 -2.80219,10.00813 -2.90218,-0.43125 -14.81874,-1.73781 -16.21343,0.40062 -0.48188,0.72594 -0.3375,1.60781 -0.20031,2.60188 0.64531,2.17437 11.83499,1.44562 15.61343,4.20406 2.10125,1.53281 3.65813,3.80906 4.20344,7.00594 1.76437,10.35406 -5.29219,17.14687 -14.21187,17.81749 -5.00375,0.36844 -9.93969,-0.0572 -14.6125,-0.40125 -1.895,-0.145 -4.14719,-0.55187 -6.00469,-0.80218 0,-0.0122 0.0253,-0.59375 0,-0.60063 0.86937,-3.2025 1.82656,-6.9 2.80187,-10.20906 3.30938,0.48906 13.89313,1.42688 15.61344,-0.8 0.38781,-0.51312 0.99531,-1.80719 0.2,-2.60187 -1.42844,-1.43 -3.65125,-1.16438 -5.73781,-1.43 -7.64563,-0.9725 -13.28438,-1.85407 -14.07875,-10.78125 -0.39375,-4.39719 0.53187,-7.82563 2.40219,-10.40875 2.95218,-4.09719 8.00062,-5.5225003 14.61187,-6.0046903 z"
     style="fill:#0005de;stroke-width:0.25"
     id="path678"
     inkscape:connector-curvature="0" />
  <path
     d="m 185.46762,6.7420797 c 5.87438,0 18.44375,0 18.44375,0 0,0 11.80875,21.8921803 11.80875,21.8921803 0,0 0,-21.8921803 0,-21.8921803 0,0 13.81156,0 13.81156,0 0,0 0,44.1765603 0,44.1765603 0,0 -19.16562,-0.0131 -19.16562,-0.0131 0,0 -10.85781,-22.27125 -10.85781,-22.27125 0,0 0,22.28438 0,22.28438 0,0 -14.04063,-0.0131 -14.04063,-0.0131 0,0 0.0222,-39.89874 0,-44.1634303 z"
     style="fill:#0005de;stroke-width:0.25"
     id="path680"
     inkscape:connector-curvature="0" />
  <path
     d="m 236.74918,6.7420797 c 0,0 16.23313,0 16.23313,0 0,0 -0.0187,44.0224903 -0.0187,44.0224903 0,0 -16.21438,0 -16.21438,0 0,0 0,-44.0224903 0,-44.0224903 z"
     style="fill:#0005de;stroke-width:0.25"
     id="path682"
     inkscape:connector-curvature="0" />
  <path
     d="m 167.98481,28.22708 c -0.68843,3.94031 -5.76375,8.90437 -9.75875,9.56375 -3.31812,0.5425 -5.58781,-0.32969 -7.22249,-1.95219 -5.81844,-5.76938 3.50812,-15.18156 8.97874,-16.00531 4.95938,-0.75063 8.86875,3.39062 8.0025,8.39375 z M 180.477,20.41864 C 177.312,11.68989 169.32138,5.6151997 156.4695,6.5598897 148.57607,7.1336397 141.84263,11.67239 138.707,17.09989 c -2.56218,4.4225 -4.17843,11.34687 -2.53718,17.76312 5.53156,21.65719 39.62874,21.37031 44.89312,-0.78125 1.00625,-4.25093 0.81156,-9.80843 -0.58594,-13.66312 z"
     style="fill:#0005de;stroke-width:0.25"
     id="path684"
     inkscape:connector-curvature="0" />
  <path
     d="m 273.67043,37.90614 c 0.14188,0.0847 0.28781,0.16656 0.43625,0.24562 3.93469,2.08157 9.35125,1.72313 12.60219,-0.83187 m -24.1775,2.19094 c -2.1825,-3.63 -2.92563,-7.81563 -2.69531,-11.48875 0.54031,-8.61563 6.50093,-17.78156 18.59937,-18.83688 0,0 10e-4,-2.5e-4 10e-4,-2.5e-4 4.13125,-0.3625 8.36062,-0.31531 12.60219,0.12813"
     style="fill:none;stroke:#ffffff;stroke-width:0.95437491;stroke-linecap:round;stroke-linejoin:round;stroke-miterlimit:79.84031677"
     id="path686"
     inkscape:connector-curvature="0" />
  <path
     d="m 110.15888,22.33583 c 0,0 0.0516,0.17406 0.0516,0.17406 0.7575,2.55312 3.96657,2.96906 8.40782,3.54406 2.8075,0.36375 6.65218,0.86156 8.08624,1.90844 0.44032,0.32125 0.83875,0.6775 1.19563,1.0675 m -24.14594,12.59343 c 1.49282,0.12219 3.20532,0.21782 4.92375,0.22657 5.09594,0.0269 7.82094,-0.67469 9.11219,-2.34594 0.0412,-0.0544 0.0819,-0.11031 0.12125,-0.16719 m -16.31,-10.01281 c -1.7225,-1.18531 -2.65125,-3.06375 -2.93969,-6.30344 -0.32187,-3.59843 0.33657,-6.55812 1.95813,-8.79749 2.17969,-3.02469 6.0225,-4.52625 12.8525,-5.02438 0,0 0.002,-2.5e-4 0.002,-2.5e-4 4.00437,-0.29562 8.17469,0.20094 12.08375,0.78188 0.16062,0.0238 0.34187,0.0531 0.54312,0.0884"
     style="fill:none;stroke:#ffffff;stroke-width:0.95437491;stroke-linecap:round;stroke-linejoin:round;stroke-miterlimit:79.84031677"
     id="path688"
     inkscape:connector-curvature="0" />
  <path
     d="m 218.10668,33.45301 c 0,0 0,-20.53531 0,-24.32437 2.58407,0 5.42407,0 8.00813,0 M 210.90825,46.55395 C 209.7545,44.18739 199.79606,24.0952 199.79606,24.0952 m -11.93937,21.75656 c 0.003,-6.21781 0.007,-17.025 0.007,-25.76374 0,-4.50969 -0.001,-8.46782 -0.004,-10.95938 3.30219,0 12.54313,0 14.6275,0"
     style="fill:none;stroke:#ffffff;stroke-width:0.95437491;stroke-linecap:round;stroke-linejoin:round;stroke-miterlimit:79.84031677"
     id="path690"
     inkscape:connector-curvature="0" />
  <path
     d="m 239.13575,45.38426 c 0,-8.97843 0,-32.77562 0,-36.25562 2.38875,0 6.73718,0 9.78812,0"
     style="fill:none;stroke:#ffffff;stroke-width:0.95437491;stroke-linecap:round;stroke-linejoin:round;stroke-miterlimit:79.84031677"
     id="path692"
     inkscape:connector-curvature="0" />
  <path
     d="m 147.692,45.95457 c -4.16656,-2.18718 -7.73593,-5.91156 -9.21,-11.68218 -1.57468,-6.15656 0.24938,-12.45375 2.29,-15.97594 3.00532,-5.20281 9.23438,-8.87406 15.87031,-9.35625 6.28344,-0.46187 11.51157,0.83375 15.40407,3.72688"
     style="fill:none;stroke:#ffffff;stroke-width:0.95437491;stroke-linecap:round;stroke-linejoin:round;stroke-miterlimit:79.84031677"
     id="path694"
     inkscape:connector-curvature="0" />
  <path
     d="m 150.53169,38.55864 c 2.19031,1.57312 4.90031,2.10718 8.07937,1.5875 3.95375,-0.6525 8.37063,-4.28844 10.51938,-8.22375"
     style="fill:none;stroke:#ffffff;stroke-width:0.95437491;stroke-linecap:round;stroke-linejoin:round;stroke-miterlimit:79.84031677"
     id="path696"
     inkscape:connector-curvature="0" />
  <path
     d="m 296.93293,8.91208 c 0,0 1.19562,-4.3559403 1.19562,-4.3559403 0,0 -4.31843,-0.49875 -4.31843,-0.49875 0,0 3.51,0.81531 3.51,0.81531 0,0 -0.38719,4.0393803 -0.38719,4.0393803 z"
     style="fill:#000000;stroke-width:0.25"
     id="path698"
     inkscape:connector-curvature="0" />
  <path
     d="m 297.15105,51.52395 c 0,0 -2.38625,0.90156 -2.38625,0.90156 0,0 3.18469,-0.65437 3.18469,-0.65437 0,0 -0.97219,-3.28125 -0.97219,-3.28125 0,0 0.17375,3.03406 0.17375,3.03406 z"
     style="fill:#000000;stroke-width:0.25"
     id="path700"
     inkscape:connector-curvature="0" />
  <path
     d="m 254.61856,53.80426 c 0,0 -4.89844,0.77438 -4.89844,0.77438 0,0 5.74906,0 5.74906,0 0,0 0,-5.56 0,-5.56 0,0 -0.85062,4.78562 -0.85062,4.78562 z"
     style="fill:#000000;stroke-width:0.25"
     id="path702"
     inkscape:connector-curvature="0" />
  <path
     d="m 208.38919,53.76082 c 0,0 -2.73563,-3.05875 -2.73563,-3.05875 0,0 2.2625,3.8425 2.2625,3.8425 0,0 6.07125,0 6.07125,0 0,0 -5.59812,-0.78375 -5.59812,-0.78375 z"
     style="fill:#000000;stroke-width:0.25"
     id="path704"
     inkscape:connector-curvature="0" />
  <path
     d="m 125.32388,52.42551 c 3.59344,-1.52406 7.03844,-5.78031 8.9275,-8.91437 0,0 -0.0816,-1.82594 -0.0816,-1.82594 0,0 0,0 0,0 -1.55375,5.44594 -8.84594,10.74031 -8.84594,10.74031 z"
     style="fill:#000000;stroke-width:0.25"
     id="path706"
     inkscape:connector-curvature="0" />
  <path
     d="m 93.55419,52.10864 c 0,0 0.59813,-4.82844 0.59813,-4.82844 0,0 -1.52,5.24562 -1.52,5.24562 0,0 5.15969,0.79657 5.15969,0.79657 0,0 -4.23782,-1.21375 -4.23782,-1.21375 z"
     style="fill:#000000;stroke-width:0.25"
     id="path708"
     inkscape:connector-curvature="0" />
  <path
     d="m 133.62419,11.60302 c 0,0 1.71594,-5.3771903 1.71594,-5.3771903 0,0 -5.34469,-1.27281 -5.34469,-1.27281 0,0 4.40125,1.70906 4.40125,1.70906 0,0 -0.7725,4.9409403 -0.7725,4.9409403 z"
     style="fill:#000000;stroke-width:0.25"
     id="path710"
     inkscape:connector-curvature="0" />
  <path
     d="m 179.76981,15.12239 c 0,0 0.008,-2.30719 0.008,-2.30719 -2.42812,-3.25375 -7.63718,-6.9668703 -6.53375,-5.8631203 0,0 6.36407,5.4809403 6.52625,8.1703103 z"
     style="fill:#000000;stroke-width:0.25"
     id="path712"
     inkscape:connector-curvature="0" />
  <path
     d="m 181.77325,53.76082 c 0,0 -0.86906,-4.96687 -0.86906,-4.96687 0,0 0,5.75062 0,5.75062 0,0 5.74875,0 5.74875,0 0,0 -4.87969,-0.78375 -4.87969,-0.78375 z"
     style="fill:#000000;stroke-width:0.25"
     id="path714"
     inkscape:connector-curvature="0" />
  <path
     d="m 186.77544,3.1423897 c 0,0 -5.74875,0 -5.74875,0 0,0 0,5.7487503 0,5.7487503 0,0 0.79594,-4.9043703 0.79594,-4.9043703 0,0 4.95281,-0.84438 4.95281,-0.84438 z"
     style="fill:#000000;stroke-width:0.25"
     id="path716"
     inkscape:connector-curvature="0" />
  <path
     d="m 211.50419,6.5436397 c 0,0 0.85406,-2.55687 0.85406,-2.55687 0,0 5.16468,-0.84438 5.16468,-0.84438 0,0 -6.01874,0 -6.01874,0 0,0 0,3.40125 0,3.40125 z"
     style="fill:#000000;stroke-width:0.25"
     id="path718"
     inkscape:connector-curvature="0" />
  <path
     d="m 255.62856,8.64614 c 0,0 0,-5.6050003 0,-5.6050003 0,0 -5.74907,0 -5.74907,0 0,0 5.00407,0.69656 5.00407,0.69656 0,0 0.745,4.9084403 0.745,4.9084403 z"
     style="fill:#000000;stroke-width:0.25"
     id="path720"
     inkscape:connector-curvature="0" />
  <path
     d="m 202.56637,48.92114 c 0,0 -0.83125,4.91343 -0.83125,4.91343 0,0 -4.9175,0.71594 -4.9175,0.71594 0,0 5.74875,0 5.74875,0 0,0 0,-5.62937 0,-5.62937 z"
     style="fill:#000000;stroke-width:0.25"
     id="path722"
     inkscape:connector-curvature="0" />
  <path
     d="m 297.98074,65.80739 c 1.40313,-10.15438 1.88719,-11.08875 -7.97375,-12.66313 -10.81594,-1.72719 -11.73937,0.99344 -15.37968,16.57656 -2.47313,10.58469 -2.10032,16.70781 5.88874,18.29063 7.72813,1.53125 9.53188,1.46656 10.81282,1.54687 1.5375,0.0969 1.99406,0.26156 2.4225,-2.20656 0.11062,-0.63875 3.27781,-16.07531 3.27781,-16.07531 0,0 -10.67875,-1.705 -10.67875,-1.705 0,0 -1.11406,5.34437 -1.11406,5.34437 0,0 3.59031,0.57313 3.59031,0.57313 0,0 -0.22906,1.0975 -0.22906,1.0975 -1.78938,7.805 -1.09,7.42843 -4.99032,6.6 -3.01562,-0.64094 -2.93625,-3.57875 -0.93375,-12.87125 2.6325,-12.21813 2.94813,-12.34875 6.08407,-11.84813 2.8175,0.45 3.40687,0.57344 2.56093,6.13094 0,0 6.66219,1.20938 6.66219,1.20938 z m -39.39093,2.68968 c 1.8475,-9.21687 2.86437,-12.16687 5.65968,-12.08125 2.88032,0.0878 2.70813,3.06313 0.86125,12.28094 -1.84875,9.21719 -2.865,12.16625 -5.74593,12.07719 -2.79407,-0.085 -2.62313,-3.06063 -0.775,-12.27688 z m 13.88906,0.42469 c 1.86594,-9.31094 2.94625,-17.46344 -7.13063,-17.77094 -9.35812,-0.28656 -11.98625,6.44594 -14.12593,17.12125 -2.14125,10.67375 -2.22782,17.48438 7.13,17.77 10.07875,0.30906 12.25906,-7.81 14.12656,-17.12031 z m -44.24312,15.52812 c 0,0 6.45937,-0.75281 6.45937,-0.75281 0,0 2.17094,-12.53375 2.17094,-12.53375 0,0 5.10875,-0.4125 5.10875,-0.4125 0,0 -2.15406,12.57594 -2.15406,12.57594 0,0 6.67375,-0.22844 6.67375,-0.22844 0,0 4.95968,-30.21593 4.95968,-30.21593 0,0 -6.57468,0.49937 -6.57468,0.49937 0,0 -1.89157,11.30469 -1.89157,11.30469 0,0 -5.10687,0.40656 -5.10687,0.40656 0,0 1.95625,-11.46719 1.95625,-11.46719 0,0 -6.52844,0.77938 -6.52844,0.77938 0,0 -5.07312,30.04468 -5.07312,30.04468 z m -16.07125,1.75719 c 0,0 14.70781,-1.78594 14.70781,-1.78594 0,0 0.81,-5.67562 0.81,-5.67562 0,0 -8.885,1.24031 -8.885,1.24031 0,0 0.95625,-6.50656 0.95625,-6.50656 0,0 7.99219,-1.38188 7.99219,-1.38188 0,0 0.80187,-5.41156 0.80187,-5.41156 0,0 -8.00031,1.33344 -8.00031,1.33344 0,0 0.83125,-5.75875 0.83125,-5.75875 0,0 8.68344,-1.71344 8.68344,-1.71344 0,0 0.80312,-5.71343 0.80312,-5.71343 0,0 -14.56,2.62406 -14.56,2.62406 0,0 -4.14062,28.74937 -4.14062,28.74937 z m 1.02312,-19.84125 c 0.48219,-3.18125 1.06438,-9.02312 -6.46187,-7.82187 -8.25469,1.31719 -9.71531,7.37562 -11.10938,16.56562 -1.32843,8.75781 -1.08093,13.81531 5.12719,12.82406 2.25469,-0.35875 4.54656,-1.41468 5.82969,-4.07156 0,0 0.0694,-0.0116 0.0694,-0.0116 0,0 -0.26656,2.64875 -0.26656,2.64875 0,0 3.98875,-0.63657 3.98875,-0.63657 0,0 2.28188,-15.04218 2.28188,-15.04218 0,0 -8.15,1.30125 -8.15,1.30125 0,0 -0.66782,4.39843 -0.66782,4.39843 0,0 2.74,-0.43781 2.74,-0.43781 0,0 -0.13656,0.90344 -0.13656,0.90344 -0.58437,3.84875 -1.58781,6.00219 -3.56469,6.31781 -2.32343,0.37031 -2.29468,-2.04844 -1.13281,-9.70656 1.13156,-7.46219 1.82625,-10.25562 4.22,-10.63781 2.14969,-0.34313 1.88781,2.49562 1.61375,4.30312 0,0 5.61906,-0.89656 5.61906,-0.89656 z m -28.78656,2.23563 c 0,0 1.63,-0.45188 1.63,-0.45188 3.0875,-0.85593 3.29281,0.75407 2.25594,7.21031 -1.275,7.94157 -2.39656,9.35125 -5.10156,10.10125 0,0 -1.56125,0.4325 -1.56125,0.4325 0,0 2.77687,-17.29218 2.77687,-17.29218 z m -9.34187,23.50875 c 0,0 8.04625,-2.23 8.04625,-2.23 7.665,-2.125 9.53093,-6.9325 11.07343,-16.54313 1.47844,-9.20281 -0.4725,-11.71156 -6.22937,-10.11593 0,0 -8.63625,2.39375 -8.63625,2.39375 0,0 -4.25406,26.49531 -4.25406,26.49531 z m -15.69156,3.47468 c 0,0 13.23593,-3.16281 13.23593,-3.16281 0,0 0.92719,-4.97531 0.92719,-4.97531 0,0 -6.57094,1.57 -6.57094,1.57 0,0 1.11032,-5.96344 1.11032,-5.96344 0,0 5.53968,-1.32344 5.53968,-1.32344 0,0 0.92813,-4.97593 0.92813,-4.97593 0,0 -5.54094,1.32406 -5.54094,1.32406 0,0 0.97469,-5.23219 0.97469,-5.23219 0,0 6.13562,-1.46625 6.13562,-1.46625 0,0 0.92657,-4.97531 0.92657,-4.97531 0,0 -12.79969,3.05844 -12.79969,3.05844 0,0 -4.86656,26.12218 -4.86656,26.12218 z m -19.0575,4.315 c 0,0 5.67844,-1.36281 5.67844,-1.36281 0,0 2.11968,-10.8975 2.11968,-10.8975 0,0 4.52844,-1.08687 4.52844,-1.08687 0,0 -2.11937,10.89718 -2.11937,10.89718 0,0 5.67812,-1.36312 5.67812,-1.36312 0,0 4.96156,-25.51 4.96156,-25.51 0,0 -5.67812,1.36281 -5.67812,1.36281 0,0 -1.855,9.53969 -1.855,9.53969 0,0 -4.52906,1.08687 -4.52906,1.08687 0,0 1.85593,-9.53937 1.85593,-9.53937 0,0 -5.67812,1.36344 -5.67812,1.36344 0,0 -4.9625,25.50968 -4.9625,25.50968 z m 0.74469,-43.71187 c 0,0 -13.0775,2.35844 -13.0775,2.35844 0,0 -1.09657,4.42719 -1.09657,4.42719 0,0 4.88094,-0.9225 4.88094,-0.9225 0,0 -2.91531,12.02281 -2.91531,12.02281 0,0 4.27719,-1.04563 4.27719,-1.04563 0,0 2.81843,-11.81281 2.81843,-11.81281 0,0 4.01594,-0.735 4.01594,-0.735 0,0 1.09688,-4.2925 1.09688,-4.2925 z m 8.0175,-1.43 c 0,0 -1.31375,5.78781 -1.31375,5.78781 0,0 -2.81407,0.60344 -2.81407,0.60344 0,0 1.30563,-5.91656 1.30563,-5.91656 0,0 -3.98813,0.67156 -3.98813,0.67156 0,0 -3.53093,15.92656 -3.53093,15.92656 0,0 4.07562,-0.94187 4.07562,-0.94187 0,0 1.18656,-5.41313 1.18656,-5.41313 0,0 2.79719,-0.64531 2.79719,-0.64531 0,0 -1.17406,5.41563 -1.17406,5.41563 0,0 3.95375,-0.89469 3.95375,-0.89469 0,0 3.47812,-15.245 3.47812,-15.245 0,0 -3.97593,0.65156 -3.97593,0.65156 z m 13.02093,3.13594 c 0,0 -0.54594,2.6275 -0.54594,2.6275 0,0 -3.98406,0.69781 -3.98406,0.69781 0,0 -0.58031,2.74906 -0.58031,2.74906 0,0 3.83875,-0.73781 3.83875,-0.73781 0,0 -0.65313,3.78469 -0.65313,3.78469 0,0 -8.31968,1.82594 -8.31968,1.82594 0,0 2.84843,-15.00094 2.84843,-15.00094 0,0 8.31969,-1.30813 8.31969,-1.30813 0,0 -0.60562,2.83 -0.60562,2.83 0,0 -3.62875,0.66844 -3.62875,0.66844 0,0 -0.58063,2.39875 -0.58063,2.39875 0,0 3.89125,-0.53531 3.89125,-0.53531 z"
     style="fill:#0005de;stroke-width:0.25"
     id="path724"
     inkscape:connector-curvature="0" />
  <path
     d="m 296.21793,64.93332 c 1.40281,-10.15468 1.88719,-11.08906 -7.97406,-12.66343 -10.81563,-1.72719 -11.73906,0.99343 -15.37938,16.57656 -2.47312,10.58468 -2.10031,16.70781 5.88875,18.29062 7.72813,1.53125 9.53156,1.46656 10.81313,1.54688 1.5375,0.0969 1.99375,0.26156 2.42218,-2.20657 0.11063,-0.63875 3.2775,-16.07499 3.2775,-16.07499 0,0 -10.67843,-1.70532 -10.67843,-1.70532 0,0 -1.11375,5.34438 -1.11375,5.34438 0,0 3.59,0.57312 3.59,0.57312 0,0 -0.22875,1.0975 -0.22875,1.0975 -1.79,7.805 -1.09032,7.42844 -4.99032,6.6 -3.01625,-0.64094 -2.93656,-3.57875 -0.93406,-12.87125 2.6325,-12.21812 2.94813,-12.34875 6.08375,-11.84812 2.81781,0.45 3.40719,0.57344 2.56125,6.13094 0,0 6.66219,1.20968 6.66219,1.20968 z m -39.39125,2.68938 c 1.84781,-9.21688 2.86469,-12.16688 5.66,-12.08125 2.88,0.0878 2.70813,3.06344 0.86094,12.28094 -1.84844,9.21718 -2.86469,12.16624 -5.74531,12.07718 -2.79438,-0.0847 -2.62375,-3.06062 -0.77563,-12.27687 z m 13.88938,0.42469 c 1.86593,-9.31094 2.94625,-17.46313 -7.13063,-17.77094 -9.35812,-0.28656 -11.98625,6.44594 -14.12594,17.12125 -2.14125,10.67406 -2.22781,17.48437 7.12969,17.77031 10.07906,0.30875 12.25938,-7.81031 14.12688,-17.12062 z m -44.24344,15.52812 c 0,0 6.45938,-0.7525 6.45938,-0.7525 0,0 2.17125,-12.53406 2.17125,-12.53406 0,0 5.10843,-0.4125 5.10843,-0.4125 0,0 -2.15343,12.57593 -2.15343,12.57593 0,0 6.67312,-0.22812 6.67312,-0.22812 0,0 4.95969,-30.21625 4.95969,-30.21625 0,0 -6.57469,0.49938 -6.57469,0.49938 0,0 -1.89156,11.305 -1.89156,11.305 0,0 -5.10625,0.40625 -5.10625,0.40625 0,0 1.95594,-11.46719 1.95594,-11.46719 0,0 -6.52844,0.77937 -6.52844,0.77937 0,0 -5.07344,30.04469 -5.07344,30.04469 z m -16.07093,1.75719 c 0,0 14.70749,-1.78594 14.70749,-1.78594 0,0 0.81032,-5.67563 0.81032,-5.67563 0,0 -8.885,1.24032 -8.885,1.24032 0,0 0.95656,-6.50657 0.95656,-6.50657 0,0 7.99187,-1.38187 7.99187,-1.38187 0,0 0.80188,-5.41156 0.80188,-5.41156 0,0 -8.00063,1.33344 -8.00063,1.33344 0,0 0.83157,-5.75875 0.83157,-5.75875 0,0 8.68343,-1.71313 8.68343,-1.71313 0,0 0.80282,-5.71375 0.80282,-5.71375 0,0 -14.55969,2.62406 -14.55969,2.62406 0,0 -4.14062,28.74938 -4.14062,28.74938 z m 1.02281,-19.84125 c 0.4825,-3.18125 1.06437,-9.02281 -6.46156,-7.82188 -8.25469,1.31719 -9.71532,7.37563 -11.10938,16.56563 -1.32844,8.75812 -1.08094,13.81531 5.1275,12.82406 2.25438,-0.35875 4.54656,-1.41469 5.82906,-4.07156 0,0 0.0697,-0.0116 0.0697,-0.0116 0,0 -0.26656,2.64875 -0.26656,2.64875 0,0 3.98844,-0.63656 3.98844,-0.63656 0,0 2.28218,-15.04187 2.28218,-15.04187 0,0 -8.14968,1.30125 -8.14968,1.30125 0,0 -0.66813,4.39812 -0.66813,4.39812 0,0 2.73969,-0.43781 2.73969,-0.43781 0,0 -0.13656,0.90343 -0.13656,0.90343 -0.58407,3.84875 -1.5875,6.00219 -3.56407,6.31782 -2.32406,0.37031 -2.29531,-2.04844 -1.13281,-9.70657 1.13156,-7.46218 1.82594,-10.25562 4.21969,-10.63781 2.14969,-0.34281 1.88812,2.49594 1.61406,4.30313 0,0 5.61844,-0.89656 5.61844,-0.89656 z m -28.78625,2.23562 c 0,0 1.63,-0.45187 1.63,-0.45187 3.0875,-0.85594 3.29281,0.75406 2.25562,7.21031 -1.275,7.94156 -2.39624,9.35125 -5.10124,10.10125 0,0 -1.56125,0.4325 -1.56125,0.4325 0,0 2.77687,-17.29219 2.77687,-17.29219 z m -9.34219,23.50875 c 0,0 8.04625,-2.23 8.04625,-2.23 7.66531,-2.125 9.53094,-6.9325 11.07375,-16.54312 1.47813,-9.20281 -0.4725,-11.71156 -6.22969,-10.11594 0,0 -8.63593,2.39375 -8.63593,2.39375 0,0 -4.25438,26.49531 -4.25438,26.49531 z m -15.69125,3.475 c 0,0 13.23594,-3.16281 13.23594,-3.16281 0,0 0.92719,-4.97563 0.92719,-4.97563 0,0 -6.57125,1.57 -6.57125,1.57 0,0 1.11062,-5.96343 1.11062,-5.96343 0,0 5.53969,-1.32344 5.53969,-1.32344 0,0 0.92781,-4.97594 0.92781,-4.97594 0,0 -5.54062,1.32406 -5.54062,1.32406 0,0 0.97469,-5.23218 0.97469,-5.23218 0,0 6.13562,-1.46594 6.13562,-1.46594 0,0 0.92656,-4.97562 0.92656,-4.97562 0,0 -12.79968,3.05843 -12.79968,3.05843 0,0 -4.86657,26.1225 -4.86657,26.1225 z m -19.05749,4.31469 c 0,0 5.67843,-1.36281 5.67843,-1.36281 0,0 2.11969,-10.8975 2.11969,-10.8975 0,0 4.52813,-1.08688 4.52813,-1.08688 0,0 -2.11907,10.89719 -2.11907,10.89719 0,0 5.67813,-1.36313 5.67813,-1.36313 0,0 4.96156,-25.50999 4.96156,-25.50999 0,0 -5.67813,1.36312 -5.67813,1.36312 0,0 -1.85499,9.53937 -1.85499,9.53937 0,0 -4.52938,1.08688 -4.52938,1.08688 0,0 1.85625,-9.53938 1.85625,-9.53938 0,0 -5.67812,1.36344 -5.67812,1.36344 0,0 -4.9625,25.50969 -4.9625,25.50969 z M 139.292,55.31364 c 0,0 -13.0775,2.35843 -13.0775,2.35843 0,0 -1.09687,4.42719 -1.09687,4.42719 0,0 4.88125,-0.9225 4.88125,-0.9225 0,0 -2.91531,12.02281 -2.91531,12.02281 0,0 4.27718,-1.04562 4.27718,-1.04562 0,0 2.81844,-11.81281 2.81844,-11.81281 0,0 4.01594,-0.73469 4.01594,-0.73469 0,0 1.09687,-4.29281 1.09687,-4.29281 z m 8.0175,-1.43 c 0,0 -1.31375,5.78781 -1.31375,5.78781 0,0 -2.81406,0.60344 -2.81406,0.60344 0,0 1.30563,-5.91657 1.30563,-5.91657 0,0 -3.98813,0.67157 -3.98813,0.67157 0,0 -3.53094,15.92656 -3.53094,15.92656 0,0 4.07532,-0.94188 4.07532,-0.94188 0,0 1.18687,-5.41312 1.18687,-5.41312 0,0 2.79688,-0.645 2.79688,-0.645 0,0 -1.17375,5.41531 -1.17375,5.41531 0,0 3.95375,-0.89469 3.95375,-0.89469 0,0 3.47812,-15.245 3.47812,-15.245 0,0 -3.97594,0.65157 -3.97594,0.65157 z m 13.02094,3.13593 c 0,0 -0.54594,2.62782 -0.54594,2.62782 0,0 -3.98406,0.6975 -3.98406,0.6975 0,0 -0.58031,2.74906 -0.58031,2.74906 0,0 3.83875,-0.73781 3.83875,-0.73781 0,0 -0.65313,3.78468 -0.65313,3.78468 0,0 -8.31968,1.82625 -8.31968,1.82625 0,0 2.84843,-15.00093 2.84843,-15.00093 0,0 8.31969,-1.30844 8.31969,-1.30844 0,0 -0.60563,2.83 -0.60563,2.83 0,0 -3.62906,0.66844 -3.62906,0.66844 0,0 -0.58031,2.39875 -0.58031,2.39875 0,0 3.89125,-0.53532 3.89125,-0.53532 z"
     style="fill:#ff0061;stroke-width:0.25"
     id="path726"
     inkscape:connector-curvature="0" />
</svg>
